<mxfile host="app.diagrams.net" agent="Mozilla/5.0 (Windows NT 10.0; Win64; x64) AppleWebKit/537.36 (KHTML, like Gecko) Chrome/135.0.0.0 Safari/537.36" version="26.2.14">
  <diagram name="Page-1" id="kJih2EVv_8KnTAs_L_VF">
    <mxGraphModel dx="1097" dy="597" grid="1" gridSize="10" guides="1" tooltips="1" connect="1" arrows="1" fold="1" page="1" pageScale="1" pageWidth="850" pageHeight="1100" math="0" shadow="0">
      <root>
        <mxCell id="0" />
        <mxCell id="1" parent="0" />
        <mxCell id="giSu3xgfnJtw4W87moCO-1" value="&lt;div&gt;&lt;span style=&quot;font-weight: normal;&quot;&gt;&amp;lt;&amp;lt;boundary&amp;gt;&amp;gt;&lt;/span&gt;&lt;/div&gt;MuseumMapGUI" style="swimlane;fontStyle=1;align=center;verticalAlign=top;childLayout=stackLayout;horizontal=1;startSize=40;horizontalStack=0;resizeParent=1;resizeParentMax=0;resizeLast=0;collapsible=1;marginBottom=0;whiteSpace=wrap;html=1;" parent="1" vertex="1">
          <mxGeometry x="45" y="480" width="240" height="470" as="geometry" />
        </mxCell>
        <mxCell id="10nFVhY4CRgbnprzsdyt-34" value="&lt;div&gt;btnZoomIn: Button&lt;/div&gt;" style="text;strokeColor=none;fillColor=none;align=left;verticalAlign=top;spacingLeft=4;spacingRight=4;overflow=hidden;rotatable=0;points=[[0,0.5],[1,0.5]];portConstraint=eastwest;whiteSpace=wrap;html=1;" vertex="1" parent="giSu3xgfnJtw4W87moCO-1">
          <mxGeometry y="40" width="240" height="26" as="geometry" />
        </mxCell>
        <mxCell id="10nFVhY4CRgbnprzsdyt-35" value="&lt;div&gt;btnZoomOut: Button&lt;/div&gt;" style="text;strokeColor=none;fillColor=none;align=left;verticalAlign=top;spacingLeft=4;spacingRight=4;overflow=hidden;rotatable=0;points=[[0,0.5],[1,0.5]];portConstraint=eastwest;whiteSpace=wrap;html=1;" vertex="1" parent="giSu3xgfnJtw4W87moCO-1">
          <mxGeometry y="66" width="240" height="26" as="geometry" />
        </mxCell>
        <mxCell id="10nFVhY4CRgbnprzsdyt-36" value="&lt;div&gt;btnRotate: Button&lt;/div&gt;" style="text;strokeColor=none;fillColor=none;align=left;verticalAlign=top;spacingLeft=4;spacingRight=4;overflow=hidden;rotatable=0;points=[[0,0.5],[1,0.5]];portConstraint=eastwest;whiteSpace=wrap;html=1;" vertex="1" parent="giSu3xgfnJtw4W87moCO-1">
          <mxGeometry y="92" width="240" height="26" as="geometry" />
        </mxCell>
        <mxCell id="10nFVhY4CRgbnprzsdyt-37" value="&lt;div&gt;btnRemoveRoute: Button&lt;/div&gt;" style="text;strokeColor=none;fillColor=none;align=left;verticalAlign=top;spacingLeft=4;spacingRight=4;overflow=hidden;rotatable=0;points=[[0,0.5],[1,0.5]];portConstraint=eastwest;whiteSpace=wrap;html=1;" vertex="1" parent="giSu3xgfnJtw4W87moCO-1">
          <mxGeometry y="118" width="240" height="26" as="geometry" />
        </mxCell>
        <mxCell id="10nFVhY4CRgbnprzsdyt-38" value="&lt;div&gt;btnDisplayTime: Button&lt;/div&gt;" style="text;strokeColor=none;fillColor=none;align=left;verticalAlign=top;spacingLeft=4;spacingRight=4;overflow=hidden;rotatable=0;points=[[0,0.5],[1,0.5]];portConstraint=eastwest;whiteSpace=wrap;html=1;" vertex="1" parent="giSu3xgfnJtw4W87moCO-1">
          <mxGeometry y="144" width="240" height="26" as="geometry" />
        </mxCell>
        <mxCell id="10nFVhY4CRgbnprzsdyt-21" value="&lt;div&gt;btnDisplayTime: Button&lt;/div&gt;" style="text;strokeColor=none;fillColor=none;align=left;verticalAlign=top;spacingLeft=4;spacingRight=4;overflow=hidden;rotatable=0;points=[[0,0.5],[1,0.5]];portConstraint=eastwest;whiteSpace=wrap;html=1;" vertex="1" parent="giSu3xgfnJtw4W87moCO-1">
          <mxGeometry y="170" width="240" height="26" as="geometry" />
        </mxCell>
        <mxCell id="giSu3xgfnJtw4W87moCO-3" value="" style="line;strokeWidth=1;fillColor=none;align=left;verticalAlign=middle;spacingTop=-1;spacingLeft=3;spacingRight=3;rotatable=0;labelPosition=right;points=[];portConstraint=eastwest;strokeColor=inherit;" parent="giSu3xgfnJtw4W87moCO-1" vertex="1">
          <mxGeometry y="196" width="240" height="8" as="geometry" />
        </mxCell>
        <mxCell id="10nFVhY4CRgbnprzsdyt-22" value="&lt;div&gt;+ MapBoundary(controller: MapController)&lt;/div&gt;" style="text;strokeColor=none;fillColor=none;align=left;verticalAlign=top;spacingLeft=4;spacingRight=4;overflow=hidden;rotatable=0;points=[[0,0.5],[1,0.5]];portConstraint=eastwest;whiteSpace=wrap;html=1;" vertex="1" parent="giSu3xgfnJtw4W87moCO-1">
          <mxGeometry y="204" width="240" height="46" as="geometry" />
        </mxCell>
        <mxCell id="10nFVhY4CRgbnprzsdyt-23" value="&lt;div&gt;+ onZoomInButtonPressed(): void&lt;/div&gt;&lt;div&gt;&lt;br&gt;&lt;/div&gt;" style="text;strokeColor=none;fillColor=none;align=left;verticalAlign=top;spacingLeft=4;spacingRight=4;overflow=hidden;rotatable=0;points=[[0,0.5],[1,0.5]];portConstraint=eastwest;whiteSpace=wrap;html=1;" vertex="1" parent="giSu3xgfnJtw4W87moCO-1">
          <mxGeometry y="250" width="240" height="26" as="geometry" />
        </mxCell>
        <mxCell id="10nFVhY4CRgbnprzsdyt-24" value="&lt;div&gt;&lt;div&gt;&lt;span style=&quot;background-color: transparent; color: light-dark(rgb(0, 0, 0), rgb(255, 255, 255));&quot;&gt;+ onZoomOutButtonPressed(): void&lt;/span&gt;&lt;/div&gt;&lt;/div&gt;&lt;div&gt;&lt;span style=&quot;background-color: transparent; color: light-dark(rgb(0, 0, 0), rgb(255, 255, 255));&quot;&gt;&lt;br&gt;&lt;/span&gt;&lt;/div&gt;" style="text;strokeColor=none;fillColor=none;align=left;verticalAlign=top;spacingLeft=4;spacingRight=4;overflow=hidden;rotatable=0;points=[[0,0.5],[1,0.5]];portConstraint=eastwest;whiteSpace=wrap;html=1;" vertex="1" parent="giSu3xgfnJtw4W87moCO-1">
          <mxGeometry y="276" width="240" height="34" as="geometry" />
        </mxCell>
        <mxCell id="10nFVhY4CRgbnprzsdyt-25" value="&lt;div&gt;&lt;div&gt;&lt;div&gt;&lt;div&gt;&lt;span style=&quot;background-color: transparent; color: light-dark(rgb(0, 0, 0), rgb(255, 255, 255));&quot;&gt;+onLoadMapButtonPressed(mapData: Map): void&lt;/span&gt;&lt;/div&gt;&lt;/div&gt;&lt;/div&gt;&lt;/div&gt;&lt;div&gt;&lt;span style=&quot;background-color: transparent; color: light-dark(rgb(0, 0, 0), rgb(255, 255, 255));&quot;&gt;&lt;br&gt;&lt;/span&gt;&lt;/div&gt;" style="text;strokeColor=none;fillColor=none;align=left;verticalAlign=top;spacingLeft=4;spacingRight=4;overflow=hidden;rotatable=0;points=[[0,0.5],[1,0.5]];portConstraint=eastwest;whiteSpace=wrap;html=1;" vertex="1" parent="giSu3xgfnJtw4W87moCO-1">
          <mxGeometry y="310" width="240" height="38" as="geometry" />
        </mxCell>
        <mxCell id="10nFVhY4CRgbnprzsdyt-26" value="&lt;div&gt;&lt;div&gt;&lt;div&gt;&lt;span style=&quot;background-color: transparent; color: light-dark(rgb(0, 0, 0), rgb(255, 255, 255));&quot;&gt;+ onRotateButtonPressed(angle: float): void&lt;/span&gt;&lt;/div&gt;&lt;/div&gt;&lt;/div&gt;&lt;div&gt;&lt;span style=&quot;background-color: transparent; color: light-dark(rgb(0, 0, 0), rgb(255, 255, 255));&quot;&gt;&lt;br&gt;&lt;/span&gt;&lt;/div&gt;" style="text;strokeColor=none;fillColor=none;align=left;verticalAlign=top;spacingLeft=4;spacingRight=4;overflow=hidden;rotatable=0;points=[[0,0.5],[1,0.5]];portConstraint=eastwest;whiteSpace=wrap;html=1;" vertex="1" parent="giSu3xgfnJtw4W87moCO-1">
          <mxGeometry y="348" width="240" height="42" as="geometry" />
        </mxCell>
        <mxCell id="10nFVhY4CRgbnprzsdyt-20" value="&lt;div&gt;&lt;div&gt;&lt;div&gt;&lt;div&gt;&lt;span style=&quot;background-color: transparent; color: light-dark(rgb(0, 0, 0), rgb(255, 255, 255));&quot;&gt;+onDisplayEstimatedTimeButton(): void&lt;/span&gt;&lt;/div&gt;&lt;/div&gt;&lt;/div&gt;&lt;/div&gt;&lt;div&gt;&lt;span style=&quot;background-color: transparent; color: light-dark(rgb(0, 0, 0), rgb(255, 255, 255));&quot;&gt;&lt;br&gt;&lt;/span&gt;&lt;/div&gt;" style="text;strokeColor=none;fillColor=none;align=left;verticalAlign=top;spacingLeft=4;spacingRight=4;overflow=hidden;rotatable=0;points=[[0,0.5],[1,0.5]];portConstraint=eastwest;whiteSpace=wrap;html=1;" vertex="1" parent="giSu3xgfnJtw4W87moCO-1">
          <mxGeometry y="390" width="240" height="42" as="geometry" />
        </mxCell>
        <mxCell id="10nFVhY4CRgbnprzsdyt-28" value="&lt;div&gt;&lt;div&gt;&lt;span style=&quot;background-color: transparent; color: light-dark(rgb(0, 0, 0), rgb(255, 255, 255));&quot;&gt;+onRemoveRouteButtonPressed(): void&lt;/span&gt;&lt;/div&gt;&lt;/div&gt;" style="text;strokeColor=none;fillColor=none;align=left;verticalAlign=top;spacingLeft=4;spacingRight=4;overflow=hidden;rotatable=0;points=[[0,0.5],[1,0.5]];portConstraint=eastwest;whiteSpace=wrap;html=1;" vertex="1" parent="giSu3xgfnJtw4W87moCO-1">
          <mxGeometry y="432" width="240" height="38" as="geometry" />
        </mxCell>
        <mxCell id="giSu3xgfnJtw4W87moCO-10" value="Calculate and Display Route&lt;div&gt;Class Diagram&lt;/div&gt;" style="shape=umlFrame;whiteSpace=wrap;html=1;pointerEvents=0;width=190;height=40;" parent="1" vertex="1">
          <mxGeometry x="10" y="20" width="1540" height="1790" as="geometry" />
        </mxCell>
        <mxCell id="yc8N-USPrAwOxbpiKcuN-10" value="&lt;div&gt;&lt;span style=&quot;font-weight: normal;&quot;&gt;&amp;lt;&amp;lt;boundary&amp;gt;&amp;gt;&lt;/span&gt;&lt;/div&gt;MobileDevice" style="swimlane;fontStyle=1;align=center;verticalAlign=top;childLayout=stackLayout;horizontal=1;startSize=40;horizontalStack=0;resizeParent=1;resizeParentMax=0;resizeLast=0;collapsible=1;marginBottom=0;whiteSpace=wrap;html=1;" parent="1" vertex="1">
          <mxGeometry x="70" y="200" width="190" height="100" as="geometry" />
        </mxCell>
        <mxCell id="yc8N-USPrAwOxbpiKcuN-11" value="- gpsSignal: boolean" style="text;strokeColor=none;fillColor=none;align=left;verticalAlign=top;spacingLeft=4;spacingRight=4;overflow=hidden;rotatable=0;points=[[0,0.5],[1,0.5]];portConstraint=eastwest;whiteSpace=wrap;html=1;" parent="yc8N-USPrAwOxbpiKcuN-10" vertex="1">
          <mxGeometry y="40" width="190" height="26" as="geometry" />
        </mxCell>
        <mxCell id="yc8N-USPrAwOxbpiKcuN-14" value="" style="line;strokeWidth=1;fillColor=none;align=left;verticalAlign=middle;spacingTop=-1;spacingLeft=3;spacingRight=3;rotatable=0;labelPosition=right;points=[];portConstraint=eastwest;strokeColor=inherit;" parent="yc8N-USPrAwOxbpiKcuN-10" vertex="1">
          <mxGeometry y="66" width="190" height="8" as="geometry" />
        </mxCell>
        <mxCell id="yc8N-USPrAwOxbpiKcuN-15" value="+ getGPSlocation(): Coordinates" style="text;strokeColor=none;fillColor=none;align=left;verticalAlign=top;spacingLeft=4;spacingRight=4;overflow=hidden;rotatable=0;points=[[0,0.5],[1,0.5]];portConstraint=eastwest;whiteSpace=wrap;html=1;" parent="yc8N-USPrAwOxbpiKcuN-10" vertex="1">
          <mxGeometry y="74" width="190" height="26" as="geometry" />
        </mxCell>
        <mxCell id="yc8N-USPrAwOxbpiKcuN-20" value="&lt;div&gt;&lt;span style=&quot;font-weight: normal;&quot;&gt;&amp;lt;&amp;lt;entity&amp;gt;&amp;gt;&lt;/span&gt;&lt;/div&gt;User" style="swimlane;fontStyle=1;align=center;verticalAlign=top;childLayout=stackLayout;horizontal=1;startSize=40;horizontalStack=0;resizeParent=1;resizeParentMax=0;resizeLast=0;collapsible=1;marginBottom=0;whiteSpace=wrap;html=1;" parent="1" vertex="1">
          <mxGeometry x="500" y="890" width="290" height="570" as="geometry" />
        </mxCell>
        <mxCell id="yc8N-USPrAwOxbpiKcuN-21" value="- id: int" style="text;strokeColor=none;fillColor=none;align=left;verticalAlign=top;spacingLeft=4;spacingRight=4;overflow=hidden;rotatable=0;points=[[0,0.5],[1,0.5]];portConstraint=eastwest;whiteSpace=wrap;html=1;" parent="yc8N-USPrAwOxbpiKcuN-20" vertex="1">
          <mxGeometry y="40" width="290" height="26" as="geometry" />
        </mxCell>
        <mxCell id="yc8N-USPrAwOxbpiKcuN-22" value="+ name: String" style="text;strokeColor=none;fillColor=none;align=left;verticalAlign=top;spacingLeft=4;spacingRight=4;overflow=hidden;rotatable=0;points=[[0,0.5],[1,0.5]];portConstraint=eastwest;whiteSpace=wrap;html=1;" parent="yc8N-USPrAwOxbpiKcuN-20" vertex="1">
          <mxGeometry y="66" width="290" height="26" as="geometry" />
        </mxCell>
        <mxCell id="yc8N-USPrAwOxbpiKcuN-28" value="+ averageSpeed: float" style="text;strokeColor=none;fillColor=none;align=left;verticalAlign=top;spacingLeft=4;spacingRight=4;overflow=hidden;rotatable=0;points=[[0,0.5],[1,0.5]];portConstraint=eastwest;whiteSpace=wrap;html=1;" parent="yc8N-USPrAwOxbpiKcuN-20" vertex="1">
          <mxGeometry y="92" width="290" height="26" as="geometry" />
        </mxCell>
        <mxCell id="yc8N-USPrAwOxbpiKcuN-23" value="" style="line;strokeWidth=1;fillColor=none;align=left;verticalAlign=middle;spacingTop=-1;spacingLeft=3;spacingRight=3;rotatable=0;labelPosition=right;points=[];portConstraint=eastwest;strokeColor=inherit;" parent="yc8N-USPrAwOxbpiKcuN-20" vertex="1">
          <mxGeometry y="118" width="290" height="8" as="geometry" />
        </mxCell>
        <mxCell id="yc8N-USPrAwOxbpiKcuN-24" value="+ User(id: int, name: String, averageSpeed: float): void" style="text;strokeColor=none;fillColor=none;align=left;verticalAlign=top;spacingLeft=4;spacingRight=4;overflow=hidden;rotatable=0;points=[[0,0.5],[1,0.5]];portConstraint=eastwest;whiteSpace=wrap;html=1;" parent="yc8N-USPrAwOxbpiKcuN-20" vertex="1">
          <mxGeometry y="126" width="290" height="34" as="geometry" />
        </mxCell>
        <mxCell id="yc8N-USPrAwOxbpiKcuN-135" value="+ getId(): int" style="text;strokeColor=none;fillColor=none;align=left;verticalAlign=top;spacingLeft=4;spacingRight=4;overflow=hidden;rotatable=0;points=[[0,0.5],[1,0.5]];portConstraint=eastwest;whiteSpace=wrap;html=1;" parent="yc8N-USPrAwOxbpiKcuN-20" vertex="1">
          <mxGeometry y="160" width="290" height="34" as="geometry" />
        </mxCell>
        <mxCell id="yc8N-USPrAwOxbpiKcuN-140" value="+ getName(): String" style="text;strokeColor=none;fillColor=none;align=left;verticalAlign=top;spacingLeft=4;spacingRight=4;overflow=hidden;rotatable=0;points=[[0,0.5],[1,0.5]];portConstraint=eastwest;whiteSpace=wrap;html=1;" parent="yc8N-USPrAwOxbpiKcuN-20" vertex="1">
          <mxGeometry y="194" width="290" height="34" as="geometry" />
        </mxCell>
        <mxCell id="yc8N-USPrAwOxbpiKcuN-139" value="+ getAverageSpeed(): float" style="text;strokeColor=none;fillColor=none;align=left;verticalAlign=top;spacingLeft=4;spacingRight=4;overflow=hidden;rotatable=0;points=[[0,0.5],[1,0.5]];portConstraint=eastwest;whiteSpace=wrap;html=1;" parent="yc8N-USPrAwOxbpiKcuN-20" vertex="1">
          <mxGeometry y="228" width="290" height="34" as="geometry" />
        </mxCell>
        <mxCell id="yc8N-USPrAwOxbpiKcuN-138" value="+ setId(id: int): void" style="text;strokeColor=none;fillColor=none;align=left;verticalAlign=top;spacingLeft=4;spacingRight=4;overflow=hidden;rotatable=0;points=[[0,0.5],[1,0.5]];portConstraint=eastwest;whiteSpace=wrap;html=1;" parent="yc8N-USPrAwOxbpiKcuN-20" vertex="1">
          <mxGeometry y="262" width="290" height="34" as="geometry" />
        </mxCell>
        <mxCell id="yc8N-USPrAwOxbpiKcuN-137" value="+ setName(name: String): void" style="text;strokeColor=none;fillColor=none;align=left;verticalAlign=top;spacingLeft=4;spacingRight=4;overflow=hidden;rotatable=0;points=[[0,0.5],[1,0.5]];portConstraint=eastwest;whiteSpace=wrap;html=1;" parent="yc8N-USPrAwOxbpiKcuN-20" vertex="1">
          <mxGeometry y="296" width="290" height="34" as="geometry" />
        </mxCell>
        <mxCell id="yc8N-USPrAwOxbpiKcuN-136" value="+ setAverageSpeed(averageSpeed: float): void" style="text;strokeColor=none;fillColor=none;align=left;verticalAlign=top;spacingLeft=4;spacingRight=4;overflow=hidden;rotatable=0;points=[[0,0.5],[1,0.5]];portConstraint=eastwest;whiteSpace=wrap;html=1;" parent="yc8N-USPrAwOxbpiKcuN-20" vertex="1">
          <mxGeometry y="330" width="290" height="34" as="geometry" />
        </mxCell>
        <mxCell id="yc8N-USPrAwOxbpiKcuN-114" value="+ selectDestination(destination: Destination): void" style="text;strokeColor=none;fillColor=none;align=left;verticalAlign=top;spacingLeft=4;spacingRight=4;overflow=hidden;rotatable=0;points=[[0,0.5],[1,0.5]];portConstraint=eastwest;whiteSpace=wrap;html=1;" parent="yc8N-USPrAwOxbpiKcuN-20" vertex="1">
          <mxGeometry y="364" width="290" height="34" as="geometry" />
        </mxCell>
        <mxCell id="yc8N-USPrAwOxbpiKcuN-64" value="+ modifyRoute(newStops: List[Destination]): void" style="text;strokeColor=none;fillColor=none;align=left;verticalAlign=top;spacingLeft=4;spacingRight=4;overflow=hidden;rotatable=0;points=[[0,0.5],[1,0.5]];portConstraint=eastwest;whiteSpace=wrap;html=1;" parent="yc8N-USPrAwOxbpiKcuN-20" vertex="1">
          <mxGeometry y="398" width="290" height="34" as="geometry" />
        </mxCell>
        <mxCell id="pX2vOgB9DVnVpHi7qS7u-5" value="+ startRoute(): void" style="text;strokeColor=none;fillColor=none;align=left;verticalAlign=top;spacingLeft=4;spacingRight=4;overflow=hidden;rotatable=0;points=[[0,0.5],[1,0.5]];portConstraint=eastwest;whiteSpace=wrap;html=1;" parent="yc8N-USPrAwOxbpiKcuN-20" vertex="1">
          <mxGeometry y="432" width="290" height="34" as="geometry" />
        </mxCell>
        <mxCell id="pX2vOgB9DVnVpHi7qS7u-6" value="+ Navigate(start: currentLocation, end: List[Destination]): void" style="text;strokeColor=none;fillColor=none;align=left;verticalAlign=top;spacingLeft=4;spacingRight=4;overflow=hidden;rotatable=0;points=[[0,0.5],[1,0.5]];portConstraint=eastwest;whiteSpace=wrap;html=1;" parent="yc8N-USPrAwOxbpiKcuN-20" vertex="1">
          <mxGeometry y="466" width="290" height="44" as="geometry" />
        </mxCell>
        <mxCell id="vBybFqp4DX1e90BLCFXX-2" value="+ cancelRoute(): void" style="text;strokeColor=none;fillColor=none;align=left;verticalAlign=top;spacingLeft=4;spacingRight=4;overflow=hidden;rotatable=0;points=[[0,0.5],[1,0.5]];portConstraint=eastwest;whiteSpace=wrap;html=1;" parent="yc8N-USPrAwOxbpiKcuN-20" vertex="1">
          <mxGeometry y="510" width="290" height="30" as="geometry" />
        </mxCell>
        <mxCell id="pX2vOgB9DVnVpHi7qS7u-4" value="+ createPersonalisedRoute(): void" style="text;strokeColor=none;fillColor=none;align=left;verticalAlign=top;spacingLeft=4;spacingRight=4;overflow=hidden;rotatable=0;points=[[0,0.5],[1,0.5]];portConstraint=eastwest;whiteSpace=wrap;html=1;" parent="yc8N-USPrAwOxbpiKcuN-20" vertex="1">
          <mxGeometry y="540" width="290" height="30" as="geometry" />
        </mxCell>
        <mxCell id="yc8N-USPrAwOxbpiKcuN-30" value="&lt;div&gt;&lt;span style=&quot;font-weight: normal;&quot;&gt;&amp;lt;&amp;lt;entity&amp;gt;&amp;gt;&lt;/span&gt;&lt;/div&gt;Destination" style="swimlane;fontStyle=1;align=center;verticalAlign=top;childLayout=stackLayout;horizontal=1;startSize=40;horizontalStack=0;resizeParent=1;resizeParentMax=0;resizeLast=0;collapsible=1;marginBottom=0;whiteSpace=wrap;html=1;" parent="1" vertex="1">
          <mxGeometry x="1140" y="830" width="320" height="596" as="geometry" />
        </mxCell>
        <mxCell id="yc8N-USPrAwOxbpiKcuN-31" value="+ name: String" style="text;strokeColor=none;fillColor=none;align=left;verticalAlign=top;spacingLeft=4;spacingRight=4;overflow=hidden;rotatable=0;points=[[0,0.5],[1,0.5]];portConstraint=eastwest;whiteSpace=wrap;html=1;" parent="yc8N-USPrAwOxbpiKcuN-30" vertex="1">
          <mxGeometry y="40" width="320" height="26" as="geometry" />
        </mxCell>
        <mxCell id="yc8N-USPrAwOxbpiKcuN-32" value="+ coordinates: Coordinates" style="text;strokeColor=none;fillColor=none;align=left;verticalAlign=top;spacingLeft=4;spacingRight=4;overflow=hidden;rotatable=0;points=[[0,0.5],[1,0.5]];portConstraint=eastwest;whiteSpace=wrap;html=1;" parent="yc8N-USPrAwOxbpiKcuN-30" vertex="1">
          <mxGeometry y="66" width="320" height="26" as="geometry" />
        </mxCell>
        <mxCell id="yc8N-USPrAwOxbpiKcuN-33" value="+ availability: boolean" style="text;strokeColor=none;fillColor=none;align=left;verticalAlign=top;spacingLeft=4;spacingRight=4;overflow=hidden;rotatable=0;points=[[0,0.5],[1,0.5]];portConstraint=eastwest;whiteSpace=wrap;html=1;" parent="yc8N-USPrAwOxbpiKcuN-30" vertex="1">
          <mxGeometry y="92" width="320" height="26" as="geometry" />
        </mxCell>
        <mxCell id="yc8N-USPrAwOxbpiKcuN-70" value="+ information: String" style="text;strokeColor=none;fillColor=none;align=left;verticalAlign=top;spacingLeft=4;spacingRight=4;overflow=hidden;rotatable=0;points=[[0,0.5],[1,0.5]];portConstraint=eastwest;whiteSpace=wrap;html=1;" parent="yc8N-USPrAwOxbpiKcuN-30" vertex="1">
          <mxGeometry y="118" width="320" height="26" as="geometry" />
        </mxCell>
        <mxCell id="yc8N-USPrAwOxbpiKcuN-34" value="" style="line;strokeWidth=1;fillColor=none;align=left;verticalAlign=middle;spacingTop=-1;spacingLeft=3;spacingRight=3;rotatable=0;labelPosition=right;points=[];portConstraint=eastwest;strokeColor=inherit;" parent="yc8N-USPrAwOxbpiKcuN-30" vertex="1">
          <mxGeometry y="144" width="320" height="8" as="geometry" />
        </mxCell>
        <mxCell id="yc8N-USPrAwOxbpiKcuN-144" value="&lt;div&gt;+ Destination(name: String, coordinates: Coordinates, availability: boolean, information: String): void&lt;/div&gt;&lt;div&gt;&lt;br&gt;&lt;/div&gt;" style="text;strokeColor=none;fillColor=none;align=left;verticalAlign=top;spacingLeft=4;spacingRight=4;overflow=hidden;rotatable=0;points=[[0,0.5],[1,0.5]];portConstraint=eastwest;whiteSpace=wrap;html=1;" parent="yc8N-USPrAwOxbpiKcuN-30" vertex="1">
          <mxGeometry y="152" width="320" height="38" as="geometry" />
        </mxCell>
        <mxCell id="yc8N-USPrAwOxbpiKcuN-150" value="&lt;div&gt;+ getName(): String&lt;/div&gt;" style="text;strokeColor=none;fillColor=none;align=left;verticalAlign=top;spacingLeft=4;spacingRight=4;overflow=hidden;rotatable=0;points=[[0,0.5],[1,0.5]];portConstraint=eastwest;whiteSpace=wrap;html=1;" parent="yc8N-USPrAwOxbpiKcuN-30" vertex="1">
          <mxGeometry y="190" width="320" height="38" as="geometry" />
        </mxCell>
        <mxCell id="yc8N-USPrAwOxbpiKcuN-149" value="&lt;div&gt;+ getCoordinates(): Coordinates&lt;/div&gt;" style="text;strokeColor=none;fillColor=none;align=left;verticalAlign=top;spacingLeft=4;spacingRight=4;overflow=hidden;rotatable=0;points=[[0,0.5],[1,0.5]];portConstraint=eastwest;whiteSpace=wrap;html=1;" parent="yc8N-USPrAwOxbpiKcuN-30" vertex="1">
          <mxGeometry y="228" width="320" height="38" as="geometry" />
        </mxCell>
        <mxCell id="yc8N-USPrAwOxbpiKcuN-148" value="&lt;div&gt;+ isAvailable(): boolean&lt;/div&gt;" style="text;strokeColor=none;fillColor=none;align=left;verticalAlign=top;spacingLeft=4;spacingRight=4;overflow=hidden;rotatable=0;points=[[0,0.5],[1,0.5]];portConstraint=eastwest;whiteSpace=wrap;html=1;" parent="yc8N-USPrAwOxbpiKcuN-30" vertex="1">
          <mxGeometry y="266" width="320" height="38" as="geometry" />
        </mxCell>
        <mxCell id="yc8N-USPrAwOxbpiKcuN-147" value="&lt;div&gt;+ getInformation(): String&lt;/div&gt;" style="text;strokeColor=none;fillColor=none;align=left;verticalAlign=top;spacingLeft=4;spacingRight=4;overflow=hidden;rotatable=0;points=[[0,0.5],[1,0.5]];portConstraint=eastwest;whiteSpace=wrap;html=1;" parent="yc8N-USPrAwOxbpiKcuN-30" vertex="1">
          <mxGeometry y="304" width="320" height="38" as="geometry" />
        </mxCell>
        <mxCell id="yc8N-USPrAwOxbpiKcuN-156" value="&lt;div&gt;+ setName(name: String): void&lt;/div&gt;" style="text;strokeColor=none;fillColor=none;align=left;verticalAlign=top;spacingLeft=4;spacingRight=4;overflow=hidden;rotatable=0;points=[[0,0.5],[1,0.5]];portConstraint=eastwest;whiteSpace=wrap;html=1;" parent="yc8N-USPrAwOxbpiKcuN-30" vertex="1">
          <mxGeometry y="342" width="320" height="38" as="geometry" />
        </mxCell>
        <mxCell id="yc8N-USPrAwOxbpiKcuN-151" value="&lt;div&gt;+ setCoordinates(coordinates: Coordinates): void&lt;/div&gt;" style="text;strokeColor=none;fillColor=none;align=left;verticalAlign=top;spacingLeft=4;spacingRight=4;overflow=hidden;rotatable=0;points=[[0,0.5],[1,0.5]];portConstraint=eastwest;whiteSpace=wrap;html=1;" parent="yc8N-USPrAwOxbpiKcuN-30" vertex="1">
          <mxGeometry y="380" width="320" height="38" as="geometry" />
        </mxCell>
        <mxCell id="yc8N-USPrAwOxbpiKcuN-35" value="+ setAvailability(availability: boolean): void" style="text;strokeColor=none;fillColor=none;align=left;verticalAlign=top;spacingLeft=4;spacingRight=4;overflow=hidden;rotatable=0;points=[[0,0.5],[1,0.5]];portConstraint=eastwest;whiteSpace=wrap;html=1;" parent="yc8N-USPrAwOxbpiKcuN-30" vertex="1">
          <mxGeometry y="418" width="320" height="38" as="geometry" />
        </mxCell>
        <mxCell id="yc8N-USPrAwOxbpiKcuN-146" value="&lt;div&gt;+ setInformation(information: String): void&lt;/div&gt;" style="text;strokeColor=none;fillColor=none;align=left;verticalAlign=top;spacingLeft=4;spacingRight=4;overflow=hidden;rotatable=0;points=[[0,0.5],[1,0.5]];portConstraint=eastwest;whiteSpace=wrap;html=1;" parent="yc8N-USPrAwOxbpiKcuN-30" vertex="1">
          <mxGeometry y="456" width="320" height="38" as="geometry" />
        </mxCell>
        <mxCell id="yc8N-USPrAwOxbpiKcuN-100" value="+ checkAvailability(): boolean" style="text;strokeColor=none;fillColor=none;align=left;verticalAlign=top;spacingLeft=4;spacingRight=4;overflow=hidden;rotatable=0;points=[[0,0.5],[1,0.5]];portConstraint=eastwest;whiteSpace=wrap;html=1;" parent="yc8N-USPrAwOxbpiKcuN-30" vertex="1">
          <mxGeometry y="494" width="320" height="34" as="geometry" />
        </mxCell>
        <mxCell id="yc8N-USPrAwOxbpiKcuN-36" value="+ suggestAlternativeTimes(): List[TimeSlot]" style="text;strokeColor=none;fillColor=none;align=left;verticalAlign=top;spacingLeft=4;spacingRight=4;overflow=hidden;rotatable=0;points=[[0,0.5],[1,0.5]];portConstraint=eastwest;whiteSpace=wrap;html=1;" parent="yc8N-USPrAwOxbpiKcuN-30" vertex="1">
          <mxGeometry y="528" width="320" height="34" as="geometry" />
        </mxCell>
        <mxCell id="yc8N-USPrAwOxbpiKcuN-69" value="+&amp;nbsp;getExhibitInfo(): String" style="text;strokeColor=none;fillColor=none;align=left;verticalAlign=top;spacingLeft=4;spacingRight=4;overflow=hidden;rotatable=0;points=[[0,0.5],[1,0.5]];portConstraint=eastwest;whiteSpace=wrap;html=1;" parent="yc8N-USPrAwOxbpiKcuN-30" vertex="1">
          <mxGeometry y="562" width="320" height="34" as="geometry" />
        </mxCell>
        <mxCell id="yc8N-USPrAwOxbpiKcuN-37" value="&lt;div&gt;&lt;span style=&quot;font-weight: normal;&quot;&gt;&amp;lt;&amp;lt;entity&amp;gt;&amp;gt;&lt;/span&gt;&lt;/div&gt;Route" style="swimlane;fontStyle=1;align=center;verticalAlign=top;childLayout=stackLayout;horizontal=1;startSize=40;horizontalStack=0;resizeParent=1;resizeParentMax=0;resizeLast=0;collapsible=1;marginBottom=0;whiteSpace=wrap;html=1;" parent="1" vertex="1">
          <mxGeometry x="670" y="1470" width="330" height="310" as="geometry" />
        </mxCell>
        <mxCell id="yc8N-USPrAwOxbpiKcuN-38" value="+ path: List[Coordinates]" style="text;strokeColor=none;fillColor=none;align=left;verticalAlign=top;spacingLeft=4;spacingRight=4;overflow=hidden;rotatable=0;points=[[0,0.5],[1,0.5]];portConstraint=eastwest;whiteSpace=wrap;html=1;" parent="yc8N-USPrAwOxbpiKcuN-37" vertex="1">
          <mxGeometry y="40" width="330" height="26" as="geometry" />
        </mxCell>
        <mxCell id="yc8N-USPrAwOxbpiKcuN-39" value="+ estimatedTime: float" style="text;strokeColor=none;fillColor=none;align=left;verticalAlign=top;spacingLeft=4;spacingRight=4;overflow=hidden;rotatable=0;points=[[0,0.5],[1,0.5]];portConstraint=eastwest;whiteSpace=wrap;html=1;" parent="yc8N-USPrAwOxbpiKcuN-37" vertex="1">
          <mxGeometry y="66" width="330" height="26" as="geometry" />
        </mxCell>
        <mxCell id="yc8N-USPrAwOxbpiKcuN-41" value="" style="line;strokeWidth=1;fillColor=none;align=left;verticalAlign=middle;spacingTop=-1;spacingLeft=3;spacingRight=3;rotatable=0;labelPosition=right;points=[];portConstraint=eastwest;strokeColor=inherit;" parent="yc8N-USPrAwOxbpiKcuN-37" vertex="1">
          <mxGeometry y="92" width="330" height="8" as="geometry" />
        </mxCell>
        <mxCell id="yc8N-USPrAwOxbpiKcuN-112" value="+ Route(estimatedTime: float, path: List&amp;lt;Coordinates&amp;gt;): void" style="text;strokeColor=none;fillColor=none;align=left;verticalAlign=top;spacingLeft=4;spacingRight=4;overflow=hidden;rotatable=0;points=[[0,0.5],[1,0.5]];portConstraint=eastwest;whiteSpace=wrap;html=1;" parent="yc8N-USPrAwOxbpiKcuN-37" vertex="1">
          <mxGeometry y="100" width="330" height="30" as="geometry" />
        </mxCell>
        <mxCell id="yc8N-USPrAwOxbpiKcuN-123" value="+ getPath(): List&amp;lt;Coordinates&amp;gt;" style="text;strokeColor=none;fillColor=none;align=left;verticalAlign=top;spacingLeft=4;spacingRight=4;overflow=hidden;rotatable=0;points=[[0,0.5],[1,0.5]];portConstraint=eastwest;whiteSpace=wrap;html=1;" parent="yc8N-USPrAwOxbpiKcuN-37" vertex="1">
          <mxGeometry y="130" width="330" height="30" as="geometry" />
        </mxCell>
        <mxCell id="yc8N-USPrAwOxbpiKcuN-124" value="+ getEstimatedTime(): float" style="text;strokeColor=none;fillColor=none;align=left;verticalAlign=top;spacingLeft=4;spacingRight=4;overflow=hidden;rotatable=0;points=[[0,0.5],[1,0.5]];portConstraint=eastwest;whiteSpace=wrap;html=1;" parent="yc8N-USPrAwOxbpiKcuN-37" vertex="1">
          <mxGeometry y="160" width="330" height="30" as="geometry" />
        </mxCell>
        <mxCell id="yc8N-USPrAwOxbpiKcuN-125" value="+ setPath(path: List&amp;lt;Coordinates&amp;gt;): void" style="text;strokeColor=none;fillColor=none;align=left;verticalAlign=top;spacingLeft=4;spacingRight=4;overflow=hidden;rotatable=0;points=[[0,0.5],[1,0.5]];portConstraint=eastwest;whiteSpace=wrap;html=1;" parent="yc8N-USPrAwOxbpiKcuN-37" vertex="1">
          <mxGeometry y="190" width="330" height="30" as="geometry" />
        </mxCell>
        <mxCell id="yc8N-USPrAwOxbpiKcuN-126" value="+ setEstimatedTime(estimatedTime: float): void" style="text;strokeColor=none;fillColor=none;align=left;verticalAlign=top;spacingLeft=4;spacingRight=4;overflow=hidden;rotatable=0;points=[[0,0.5],[1,0.5]];portConstraint=eastwest;whiteSpace=wrap;html=1;" parent="yc8N-USPrAwOxbpiKcuN-37" vertex="1">
          <mxGeometry y="220" width="330" height="30" as="geometry" />
        </mxCell>
        <mxCell id="yc8N-USPrAwOxbpiKcuN-42" value="+ calculateTime(speed: float): float" style="text;strokeColor=none;fillColor=none;align=left;verticalAlign=top;spacingLeft=4;spacingRight=4;overflow=hidden;rotatable=0;points=[[0,0.5],[1,0.5]];portConstraint=eastwest;whiteSpace=wrap;html=1;" parent="yc8N-USPrAwOxbpiKcuN-37" vertex="1">
          <mxGeometry y="250" width="330" height="30" as="geometry" />
        </mxCell>
        <mxCell id="vBybFqp4DX1e90BLCFXX-1" value="+ personalisedRoute(): boolean" style="text;strokeColor=none;fillColor=none;align=left;verticalAlign=top;spacingLeft=4;spacingRight=4;overflow=hidden;rotatable=0;points=[[0,0.5],[1,0.5]];portConstraint=eastwest;whiteSpace=wrap;html=1;" parent="yc8N-USPrAwOxbpiKcuN-37" vertex="1">
          <mxGeometry y="280" width="330" height="30" as="geometry" />
        </mxCell>
        <mxCell id="yc8N-USPrAwOxbpiKcuN-44" value="&lt;div&gt;&lt;span style=&quot;font-weight: normal;&quot;&gt;&amp;lt;&amp;lt;control&amp;gt;&amp;gt;&lt;/span&gt;&lt;/div&gt;RoutePlanner" style="swimlane;fontStyle=1;align=center;verticalAlign=top;childLayout=stackLayout;horizontal=1;startSize=40;horizontalStack=0;resizeParent=1;resizeParentMax=0;resizeLast=0;collapsible=1;marginBottom=0;whiteSpace=wrap;html=1;" parent="1" vertex="1">
          <mxGeometry x="570" y="526" width="300" height="210" as="geometry" />
        </mxCell>
        <mxCell id="yc8N-USPrAwOxbpiKcuN-45" value="+ currentRoute: Route" style="text;strokeColor=none;fillColor=none;align=left;verticalAlign=top;spacingLeft=4;spacingRight=4;overflow=hidden;rotatable=0;points=[[0,0.5],[1,0.5]];portConstraint=eastwest;whiteSpace=wrap;html=1;" parent="yc8N-USPrAwOxbpiKcuN-44" vertex="1">
          <mxGeometry y="40" width="300" height="26" as="geometry" />
        </mxCell>
        <mxCell id="yc8N-USPrAwOxbpiKcuN-46" value="+ stops: List[Destination]" style="text;strokeColor=none;fillColor=none;align=left;verticalAlign=top;spacingLeft=4;spacingRight=4;overflow=hidden;rotatable=0;points=[[0,0.5],[1,0.5]];portConstraint=eastwest;whiteSpace=wrap;html=1;" parent="yc8N-USPrAwOxbpiKcuN-44" vertex="1">
          <mxGeometry y="66" width="300" height="26" as="geometry" />
        </mxCell>
        <mxCell id="yc8N-USPrAwOxbpiKcuN-48" value="" style="line;strokeWidth=1;fillColor=none;align=left;verticalAlign=middle;spacingTop=-1;spacingLeft=3;spacingRight=3;rotatable=0;labelPosition=right;points=[];portConstraint=eastwest;strokeColor=inherit;" parent="yc8N-USPrAwOxbpiKcuN-44" vertex="1">
          <mxGeometry y="92" width="300" height="8" as="geometry" />
        </mxCell>
        <mxCell id="yc8N-USPrAwOxbpiKcuN-49" value="+&amp;nbsp;calculateRoute(start: Coordinates, end: Destination): Route" style="text;strokeColor=none;fillColor=none;align=left;verticalAlign=top;spacingLeft=4;spacingRight=4;overflow=hidden;rotatable=0;points=[[0,0.5],[1,0.5]];portConstraint=eastwest;whiteSpace=wrap;html=1;" parent="yc8N-USPrAwOxbpiKcuN-44" vertex="1">
          <mxGeometry y="100" width="300" height="40" as="geometry" />
        </mxCell>
        <mxCell id="yc8N-USPrAwOxbpiKcuN-50" value="+&amp;nbsp;updateRoute(newStops: List[Destination]): void" style="text;strokeColor=none;fillColor=none;align=left;verticalAlign=top;spacingLeft=4;spacingRight=4;overflow=hidden;rotatable=0;points=[[0,0.5],[1,0.5]];portConstraint=eastwest;whiteSpace=wrap;html=1;" parent="yc8N-USPrAwOxbpiKcuN-44" vertex="1">
          <mxGeometry y="140" width="300" height="24" as="geometry" />
        </mxCell>
        <mxCell id="yc8N-USPrAwOxbpiKcuN-51" value="+&amp;nbsp;&lt;span style=&quot;background-color: transparent; color: light-dark(rgb(0, 0, 0), rgb(255, 255, 255));&quot;&gt;suggestAlternatives(closedDestination: Destination): List[Destination]&lt;/span&gt;&lt;h4 class=&quot;&quot; data-end=&quot;1897&quot; data-start=&quot;1869&quot;&gt;&lt;/h4&gt;" style="text;strokeColor=none;fillColor=none;align=left;verticalAlign=top;spacingLeft=4;spacingRight=4;overflow=hidden;rotatable=0;points=[[0,0.5],[1,0.5]];portConstraint=eastwest;whiteSpace=wrap;html=1;" parent="yc8N-USPrAwOxbpiKcuN-44" vertex="1">
          <mxGeometry y="164" width="300" height="46" as="geometry" />
        </mxCell>
        <mxCell id="yc8N-USPrAwOxbpiKcuN-52" value="&lt;div&gt;&lt;span style=&quot;font-weight: normal;&quot;&gt;&amp;lt;&amp;lt;control&amp;gt;&amp;gt;&lt;/span&gt;&lt;/div&gt;NotificationManager" style="swimlane;fontStyle=1;align=center;verticalAlign=top;childLayout=stackLayout;horizontal=1;startSize=40;horizontalStack=0;resizeParent=1;resizeParentMax=0;resizeLast=0;collapsible=1;marginBottom=0;whiteSpace=wrap;html=1;" parent="1" vertex="1">
          <mxGeometry x="85" y="970" width="250" height="192" as="geometry" />
        </mxCell>
        <mxCell id="yc8N-USPrAwOxbpiKcuN-54" value="+ notifications: List[Notification]" style="text;strokeColor=none;fillColor=none;align=left;verticalAlign=top;spacingLeft=4;spacingRight=4;overflow=hidden;rotatable=0;points=[[0,0.5],[1,0.5]];portConstraint=eastwest;whiteSpace=wrap;html=1;" parent="yc8N-USPrAwOxbpiKcuN-52" vertex="1">
          <mxGeometry y="40" width="250" height="26" as="geometry" />
        </mxCell>
        <mxCell id="yc8N-USPrAwOxbpiKcuN-55" value="" style="line;strokeWidth=1;fillColor=none;align=left;verticalAlign=middle;spacingTop=-1;spacingLeft=3;spacingRight=3;rotatable=0;labelPosition=right;points=[];portConstraint=eastwest;strokeColor=inherit;" parent="yc8N-USPrAwOxbpiKcuN-52" vertex="1">
          <mxGeometry y="66" width="250" height="8" as="geometry" />
        </mxCell>
        <mxCell id="yc8N-USPrAwOxbpiKcuN-56" value="+ sendWarning(message: string): void" style="text;strokeColor=none;fillColor=none;align=left;verticalAlign=top;spacingLeft=4;spacingRight=4;overflow=hidden;rotatable=0;points=[[0,0.5],[1,0.5]];portConstraint=eastwest;whiteSpace=wrap;html=1;" parent="yc8N-USPrAwOxbpiKcuN-52" vertex="1">
          <mxGeometry y="74" width="250" height="26" as="geometry" />
        </mxCell>
        <mxCell id="yc8N-USPrAwOxbpiKcuN-58" value="+&amp;nbsp;updateDestinationStatus(destination: Destination, status: boolean): void&lt;h4 class=&quot;&quot; data-end=&quot;1897&quot; data-start=&quot;1869&quot;&gt;&lt;/h4&gt;" style="text;strokeColor=none;fillColor=none;align=left;verticalAlign=top;spacingLeft=4;spacingRight=4;overflow=hidden;rotatable=0;points=[[0,0.5],[1,0.5]];portConstraint=eastwest;whiteSpace=wrap;html=1;" parent="yc8N-USPrAwOxbpiKcuN-52" vertex="1">
          <mxGeometry y="100" width="250" height="46" as="geometry" />
        </mxCell>
        <mxCell id="yc8N-USPrAwOxbpiKcuN-71" value="+ deviationWarning(checkDeviation = true): void&lt;h4 class=&quot;&quot; data-end=&quot;1897&quot; data-start=&quot;1869&quot;&gt;&lt;/h4&gt;" style="text;strokeColor=none;fillColor=none;align=left;verticalAlign=top;spacingLeft=4;spacingRight=4;overflow=hidden;rotatable=0;points=[[0,0.5],[1,0.5]];portConstraint=eastwest;whiteSpace=wrap;html=1;" parent="yc8N-USPrAwOxbpiKcuN-52" vertex="1">
          <mxGeometry y="146" width="250" height="46" as="geometry" />
        </mxCell>
        <mxCell id="yc8N-USPrAwOxbpiKcuN-59" value="&lt;div&gt;&lt;span style=&quot;font-weight: normal;&quot;&gt;&amp;lt;&amp;lt;control&amp;gt;&amp;gt;&lt;/span&gt;&lt;/div&gt;LocationTracker" style="swimlane;fontStyle=1;align=center;verticalAlign=top;childLayout=stackLayout;horizontal=1;startSize=40;horizontalStack=0;resizeParent=1;resizeParentMax=0;resizeLast=0;collapsible=1;marginBottom=0;whiteSpace=wrap;html=1;" parent="1" vertex="1">
          <mxGeometry x="595" y="177" width="250" height="146" as="geometry" />
        </mxCell>
        <mxCell id="yc8N-USPrAwOxbpiKcuN-60" value="- currentPosition: Coordinates" style="text;strokeColor=none;fillColor=none;align=left;verticalAlign=top;spacingLeft=4;spacingRight=4;overflow=hidden;rotatable=0;points=[[0,0.5],[1,0.5]];portConstraint=eastwest;whiteSpace=wrap;html=1;" parent="yc8N-USPrAwOxbpiKcuN-59" vertex="1">
          <mxGeometry y="40" width="250" height="26" as="geometry" />
        </mxCell>
        <mxCell id="yc8N-USPrAwOxbpiKcuN-61" value="" style="line;strokeWidth=1;fillColor=none;align=left;verticalAlign=middle;spacingTop=-1;spacingLeft=3;spacingRight=3;rotatable=0;labelPosition=right;points=[];portConstraint=eastwest;strokeColor=inherit;" parent="yc8N-USPrAwOxbpiKcuN-59" vertex="1">
          <mxGeometry y="66" width="250" height="8" as="geometry" />
        </mxCell>
        <mxCell id="yc8N-USPrAwOxbpiKcuN-62" value="+&amp;nbsp;getCurrentLocation(): Coordinates" style="text;strokeColor=none;fillColor=none;align=left;verticalAlign=top;spacingLeft=4;spacingRight=4;overflow=hidden;rotatable=0;points=[[0,0.5],[1,0.5]];portConstraint=eastwest;whiteSpace=wrap;html=1;" parent="yc8N-USPrAwOxbpiKcuN-59" vertex="1">
          <mxGeometry y="74" width="250" height="26" as="geometry" />
        </mxCell>
        <mxCell id="yc8N-USPrAwOxbpiKcuN-63" value="+&amp;nbsp;&lt;span style=&quot;background-color: transparent; color: light-dark(rgb(0, 0, 0), rgb(255, 255, 255));&quot;&gt;checkDeviation(optimalPath: Route, userLocation: Coordinates): boolean&lt;/span&gt;&lt;h4 class=&quot;&quot; data-end=&quot;1897&quot; data-start=&quot;1869&quot;&gt;&lt;/h4&gt;" style="text;strokeColor=none;fillColor=none;align=left;verticalAlign=top;spacingLeft=4;spacingRight=4;overflow=hidden;rotatable=0;points=[[0,0.5],[1,0.5]];portConstraint=eastwest;whiteSpace=wrap;html=1;" parent="yc8N-USPrAwOxbpiKcuN-59" vertex="1">
          <mxGeometry y="100" width="250" height="46" as="geometry" />
        </mxCell>
        <mxCell id="yc8N-USPrAwOxbpiKcuN-72" value="&lt;div&gt;&lt;span style=&quot;font-weight: normal;&quot;&gt;&amp;lt;&amp;lt;entity&amp;gt;&amp;gt;&lt;/span&gt;&lt;/div&gt;Coordinates" style="swimlane;fontStyle=1;align=center;verticalAlign=top;childLayout=stackLayout;horizontal=1;startSize=40;horizontalStack=0;resizeParent=1;resizeParentMax=0;resizeLast=0;collapsible=1;marginBottom=0;whiteSpace=wrap;html=1;" parent="1" vertex="1">
          <mxGeometry x="1140" y="110" width="260" height="374" as="geometry" />
        </mxCell>
        <mxCell id="yc8N-USPrAwOxbpiKcuN-73" value="- langtitude: float" style="text;strokeColor=none;fillColor=none;align=left;verticalAlign=top;spacingLeft=4;spacingRight=4;overflow=hidden;rotatable=0;points=[[0,0.5],[1,0.5]];portConstraint=eastwest;whiteSpace=wrap;html=1;" parent="yc8N-USPrAwOxbpiKcuN-72" vertex="1">
          <mxGeometry y="40" width="260" height="26" as="geometry" />
        </mxCell>
        <mxCell id="yc8N-USPrAwOxbpiKcuN-74" value="- longtitude: float" style="text;strokeColor=none;fillColor=none;align=left;verticalAlign=top;spacingLeft=4;spacingRight=4;overflow=hidden;rotatable=0;points=[[0,0.5],[1,0.5]];portConstraint=eastwest;whiteSpace=wrap;html=1;" parent="yc8N-USPrAwOxbpiKcuN-72" vertex="1">
          <mxGeometry y="66" width="260" height="34" as="geometry" />
        </mxCell>
        <mxCell id="10nFVhY4CRgbnprzsdyt-1" value="- level: float" style="text;strokeColor=none;fillColor=none;align=left;verticalAlign=top;spacingLeft=4;spacingRight=4;overflow=hidden;rotatable=0;points=[[0,0.5],[1,0.5]];portConstraint=eastwest;whiteSpace=wrap;html=1;" vertex="1" parent="yc8N-USPrAwOxbpiKcuN-72">
          <mxGeometry y="100" width="260" height="34" as="geometry" />
        </mxCell>
        <mxCell id="yc8N-USPrAwOxbpiKcuN-75" value="" style="line;strokeWidth=1;fillColor=none;align=left;verticalAlign=middle;spacingTop=-1;spacingLeft=3;spacingRight=3;rotatable=0;labelPosition=right;points=[];portConstraint=eastwest;strokeColor=inherit;" parent="yc8N-USPrAwOxbpiKcuN-72" vertex="1">
          <mxGeometry y="134" width="260" height="18" as="geometry" />
        </mxCell>
        <mxCell id="yc8N-USPrAwOxbpiKcuN-111" value="+ Coordinates(langtitude:&amp;nbsp;float, longtitude: float): void" style="text;strokeColor=none;fillColor=none;align=left;verticalAlign=top;spacingLeft=4;spacingRight=4;overflow=hidden;rotatable=0;points=[[0,0.5],[1,0.5]];portConstraint=eastwest;whiteSpace=wrap;html=1;" parent="yc8N-USPrAwOxbpiKcuN-72" vertex="1">
          <mxGeometry y="152" width="260" height="42" as="geometry" />
        </mxCell>
        <mxCell id="yc8N-USPrAwOxbpiKcuN-127" value="+ getLangitude(): float" style="text;strokeColor=none;fillColor=none;align=left;verticalAlign=top;spacingLeft=4;spacingRight=4;overflow=hidden;rotatable=0;points=[[0,0.5],[1,0.5]];portConstraint=eastwest;whiteSpace=wrap;html=1;" parent="yc8N-USPrAwOxbpiKcuN-72" vertex="1">
          <mxGeometry y="194" width="260" height="30" as="geometry" />
        </mxCell>
        <mxCell id="yc8N-USPrAwOxbpiKcuN-130" value="+ getLongtitude(): float" style="text;strokeColor=none;fillColor=none;align=left;verticalAlign=top;spacingLeft=4;spacingRight=4;overflow=hidden;rotatable=0;points=[[0,0.5],[1,0.5]];portConstraint=eastwest;whiteSpace=wrap;html=1;" parent="yc8N-USPrAwOxbpiKcuN-72" vertex="1">
          <mxGeometry y="224" width="260" height="30" as="geometry" />
        </mxCell>
        <mxCell id="10nFVhY4CRgbnprzsdyt-2" value="+ getLevel(): float" style="text;strokeColor=none;fillColor=none;align=left;verticalAlign=top;spacingLeft=4;spacingRight=4;overflow=hidden;rotatable=0;points=[[0,0.5],[1,0.5]];portConstraint=eastwest;whiteSpace=wrap;html=1;" vertex="1" parent="yc8N-USPrAwOxbpiKcuN-72">
          <mxGeometry y="254" width="260" height="30" as="geometry" />
        </mxCell>
        <mxCell id="yc8N-USPrAwOxbpiKcuN-129" value="+ setLangitude(langtitude: float): void" style="text;strokeColor=none;fillColor=none;align=left;verticalAlign=top;spacingLeft=4;spacingRight=4;overflow=hidden;rotatable=0;points=[[0,0.5],[1,0.5]];portConstraint=eastwest;whiteSpace=wrap;html=1;" parent="yc8N-USPrAwOxbpiKcuN-72" vertex="1">
          <mxGeometry y="284" width="260" height="30" as="geometry" />
        </mxCell>
        <mxCell id="yc8N-USPrAwOxbpiKcuN-128" value="+ setLongtitude(longtitude: float): void" style="text;strokeColor=none;fillColor=none;align=left;verticalAlign=top;spacingLeft=4;spacingRight=4;overflow=hidden;rotatable=0;points=[[0,0.5],[1,0.5]];portConstraint=eastwest;whiteSpace=wrap;html=1;" parent="yc8N-USPrAwOxbpiKcuN-72" vertex="1">
          <mxGeometry y="314" width="260" height="30" as="geometry" />
        </mxCell>
        <mxCell id="10nFVhY4CRgbnprzsdyt-3" value="+ setLevel(level: float): void" style="text;strokeColor=none;fillColor=none;align=left;verticalAlign=top;spacingLeft=4;spacingRight=4;overflow=hidden;rotatable=0;points=[[0,0.5],[1,0.5]];portConstraint=eastwest;whiteSpace=wrap;html=1;" vertex="1" parent="yc8N-USPrAwOxbpiKcuN-72">
          <mxGeometry y="344" width="260" height="30" as="geometry" />
        </mxCell>
        <mxCell id="yc8N-USPrAwOxbpiKcuN-77" value="&lt;div&gt;&lt;span style=&quot;font-weight: normal;&quot;&gt;&amp;lt;&amp;lt;entity&amp;gt;&amp;gt;&lt;/span&gt;&lt;/div&gt;Map" style="swimlane;fontStyle=1;align=center;verticalAlign=top;childLayout=stackLayout;horizontal=1;startSize=40;horizontalStack=0;resizeParent=1;resizeParentMax=0;resizeLast=0;collapsible=1;marginBottom=0;whiteSpace=wrap;html=1;" parent="1" vertex="1">
          <mxGeometry x="1180" y="511" width="240" height="240" as="geometry" />
        </mxCell>
        <mxCell id="yc8N-USPrAwOxbpiKcuN-78" value="+ name: String" style="text;strokeColor=none;fillColor=none;align=left;verticalAlign=top;spacingLeft=4;spacingRight=4;overflow=hidden;rotatable=0;points=[[0,0.5],[1,0.5]];portConstraint=eastwest;whiteSpace=wrap;html=1;" parent="yc8N-USPrAwOxbpiKcuN-77" vertex="1">
          <mxGeometry y="40" width="240" height="26" as="geometry" />
        </mxCell>
        <mxCell id="yc8N-USPrAwOxbpiKcuN-79" value="+ data: byte[]" style="text;strokeColor=none;fillColor=none;align=left;verticalAlign=top;spacingLeft=4;spacingRight=4;overflow=hidden;rotatable=0;points=[[0,0.5],[1,0.5]];portConstraint=eastwest;whiteSpace=wrap;html=1;" parent="yc8N-USPrAwOxbpiKcuN-77" vertex="1">
          <mxGeometry y="66" width="240" height="26" as="geometry" />
        </mxCell>
        <mxCell id="yc8N-USPrAwOxbpiKcuN-80" value="" style="line;strokeWidth=1;fillColor=none;align=left;verticalAlign=middle;spacingTop=-1;spacingLeft=3;spacingRight=3;rotatable=0;labelPosition=right;points=[];portConstraint=eastwest;strokeColor=inherit;" parent="yc8N-USPrAwOxbpiKcuN-77" vertex="1">
          <mxGeometry y="92" width="240" height="18" as="geometry" />
        </mxCell>
        <mxCell id="yc8N-USPrAwOxbpiKcuN-116" value="&lt;span style=&quot;text-align: center; text-wrap-mode: nowrap;&quot;&gt;+ Map(name:&amp;nbsp;&lt;/span&gt;&lt;span style=&quot;text-align: center; text-wrap-mode: nowrap;&quot;&gt;String&amp;nbsp;&lt;/span&gt;&lt;span style=&quot;text-align: center; text-wrap-mode: nowrap;&quot;&gt;,&amp;nbsp;&lt;/span&gt;&lt;span style=&quot;text-align: center; text-wrap-mode: nowrap;&quot;&gt;data:&amp;nbsp;&lt;/span&gt;&lt;span style=&quot;text-align: center; text-wrap-mode: nowrap;&quot;&gt;byte[] ): void&lt;/span&gt;" style="text;strokeColor=none;fillColor=none;align=left;verticalAlign=top;spacingLeft=4;spacingRight=4;overflow=hidden;rotatable=0;points=[[0,0.5],[1,0.5]];portConstraint=eastwest;whiteSpace=wrap;html=1;" parent="yc8N-USPrAwOxbpiKcuN-77" vertex="1">
          <mxGeometry y="110" width="240" height="26" as="geometry" />
        </mxCell>
        <mxCell id="yc8N-USPrAwOxbpiKcuN-117" value="&lt;span style=&quot;text-align: center; text-wrap-mode: nowrap;&quot;&gt;+ getName(): String&lt;/span&gt;" style="text;strokeColor=none;fillColor=none;align=left;verticalAlign=top;spacingLeft=4;spacingRight=4;overflow=hidden;rotatable=0;points=[[0,0.5],[1,0.5]];portConstraint=eastwest;whiteSpace=wrap;html=1;" parent="yc8N-USPrAwOxbpiKcuN-77" vertex="1">
          <mxGeometry y="136" width="240" height="26" as="geometry" />
        </mxCell>
        <mxCell id="yc8N-USPrAwOxbpiKcuN-119" value="&lt;span style=&quot;text-align: center; text-wrap-mode: nowrap;&quot;&gt;+ getData(): byte[]&lt;/span&gt;" style="text;strokeColor=none;fillColor=none;align=left;verticalAlign=top;spacingLeft=4;spacingRight=4;overflow=hidden;rotatable=0;points=[[0,0.5],[1,0.5]];portConstraint=eastwest;whiteSpace=wrap;html=1;" parent="yc8N-USPrAwOxbpiKcuN-77" vertex="1">
          <mxGeometry y="162" width="240" height="26" as="geometry" />
        </mxCell>
        <mxCell id="yc8N-USPrAwOxbpiKcuN-118" value="&lt;div style=&quot;text-align: center;&quot;&gt;&lt;span style=&quot;background-color: transparent; text-wrap-mode: nowrap;&quot;&gt;+ setName(name: String): void&lt;/span&gt;&lt;/div&gt;" style="text;strokeColor=none;fillColor=none;align=left;verticalAlign=top;spacingLeft=4;spacingRight=4;overflow=hidden;rotatable=0;points=[[0,0.5],[1,0.5]];portConstraint=eastwest;whiteSpace=wrap;html=1;" parent="yc8N-USPrAwOxbpiKcuN-77" vertex="1">
          <mxGeometry y="188" width="240" height="26" as="geometry" />
        </mxCell>
        <mxCell id="yc8N-USPrAwOxbpiKcuN-121" value="&lt;span style=&quot;text-align: center; text-wrap-mode: nowrap;&quot;&gt;+ setData(data: byte[]): void&lt;/span&gt;" style="text;strokeColor=none;fillColor=none;align=left;verticalAlign=top;spacingLeft=4;spacingRight=4;overflow=hidden;rotatable=0;points=[[0,0.5],[1,0.5]];portConstraint=eastwest;whiteSpace=wrap;html=1;" parent="yc8N-USPrAwOxbpiKcuN-77" vertex="1">
          <mxGeometry y="214" width="240" height="26" as="geometry" />
        </mxCell>
        <mxCell id="yc8N-USPrAwOxbpiKcuN-81" value="&lt;div&gt;&lt;span style=&quot;font-weight: normal;&quot;&gt;&amp;lt;&amp;lt;entity&amp;gt;&amp;gt;&lt;/span&gt;&lt;/div&gt;Notification" style="swimlane;fontStyle=1;align=center;verticalAlign=top;childLayout=stackLayout;horizontal=1;startSize=40;horizontalStack=0;resizeParent=1;resizeParentMax=0;resizeLast=0;collapsible=1;marginBottom=0;whiteSpace=wrap;html=1;" parent="1" vertex="1">
          <mxGeometry x="60" y="1340" width="300" height="246" as="geometry" />
        </mxCell>
        <mxCell id="yc8N-USPrAwOxbpiKcuN-82" value="+ type: String" style="text;strokeColor=none;fillColor=none;align=left;verticalAlign=top;spacingLeft=4;spacingRight=4;overflow=hidden;rotatable=0;points=[[0,0.5],[1,0.5]];portConstraint=eastwest;whiteSpace=wrap;html=1;" parent="yc8N-USPrAwOxbpiKcuN-81" vertex="1">
          <mxGeometry y="40" width="300" height="26" as="geometry" />
        </mxCell>
        <mxCell id="yc8N-USPrAwOxbpiKcuN-83" value="+ message: String" style="text;strokeColor=none;fillColor=none;align=left;verticalAlign=top;spacingLeft=4;spacingRight=4;overflow=hidden;rotatable=0;points=[[0,0.5],[1,0.5]];portConstraint=eastwest;whiteSpace=wrap;html=1;" parent="yc8N-USPrAwOxbpiKcuN-81" vertex="1">
          <mxGeometry y="66" width="300" height="26" as="geometry" />
        </mxCell>
        <mxCell id="yc8N-USPrAwOxbpiKcuN-84" value="" style="line;strokeWidth=1;fillColor=none;align=left;verticalAlign=middle;spacingTop=-1;spacingLeft=3;spacingRight=3;rotatable=0;labelPosition=right;points=[];portConstraint=eastwest;strokeColor=inherit;" parent="yc8N-USPrAwOxbpiKcuN-81" vertex="1">
          <mxGeometry y="92" width="300" height="24" as="geometry" />
        </mxCell>
        <mxCell id="yc8N-USPrAwOxbpiKcuN-113" value="+ Notification(type: String, message: String): void" style="text;strokeColor=none;fillColor=none;align=left;verticalAlign=top;spacingLeft=4;spacingRight=4;overflow=hidden;rotatable=0;points=[[0,0.5],[1,0.5]];portConstraint=eastwest;whiteSpace=wrap;html=1;" parent="yc8N-USPrAwOxbpiKcuN-81" vertex="1">
          <mxGeometry y="116" width="300" height="26" as="geometry" />
        </mxCell>
        <mxCell id="yc8N-USPrAwOxbpiKcuN-131" value="+ getType(): String" style="text;strokeColor=none;fillColor=none;align=left;verticalAlign=top;spacingLeft=4;spacingRight=4;overflow=hidden;rotatable=0;points=[[0,0.5],[1,0.5]];portConstraint=eastwest;whiteSpace=wrap;html=1;" parent="yc8N-USPrAwOxbpiKcuN-81" vertex="1">
          <mxGeometry y="142" width="300" height="26" as="geometry" />
        </mxCell>
        <mxCell id="yc8N-USPrAwOxbpiKcuN-134" value="+ getMessage(): String" style="text;strokeColor=none;fillColor=none;align=left;verticalAlign=top;spacingLeft=4;spacingRight=4;overflow=hidden;rotatable=0;points=[[0,0.5],[1,0.5]];portConstraint=eastwest;whiteSpace=wrap;html=1;" parent="yc8N-USPrAwOxbpiKcuN-81" vertex="1">
          <mxGeometry y="168" width="300" height="26" as="geometry" />
        </mxCell>
        <mxCell id="yc8N-USPrAwOxbpiKcuN-133" value="+ setType(type: String): void" style="text;strokeColor=none;fillColor=none;align=left;verticalAlign=top;spacingLeft=4;spacingRight=4;overflow=hidden;rotatable=0;points=[[0,0.5],[1,0.5]];portConstraint=eastwest;whiteSpace=wrap;html=1;" parent="yc8N-USPrAwOxbpiKcuN-81" vertex="1">
          <mxGeometry y="194" width="300" height="26" as="geometry" />
        </mxCell>
        <mxCell id="yc8N-USPrAwOxbpiKcuN-132" value="+ setMessage(message: String): void" style="text;strokeColor=none;fillColor=none;align=left;verticalAlign=top;spacingLeft=4;spacingRight=4;overflow=hidden;rotatable=0;points=[[0,0.5],[1,0.5]];portConstraint=eastwest;whiteSpace=wrap;html=1;" parent="yc8N-USPrAwOxbpiKcuN-81" vertex="1">
          <mxGeometry y="220" width="300" height="26" as="geometry" />
        </mxCell>
        <mxCell id="-oUlo9dYUjmmpKcrV3Kn-2" value="" style="endArrow=none;html=1;edgeStyle=orthogonalEdgeStyle;rounded=0;exitX=0.47;exitY=1.041;exitDx=0;exitDy=0;exitPerimeter=0;" parent="1" source="10nFVhY4CRgbnprzsdyt-16" target="yc8N-USPrAwOxbpiKcuN-44" edge="1">
          <mxGeometry relative="1" as="geometry">
            <mxPoint x="220" y="560" as="sourcePoint" />
            <mxPoint x="380" y="560" as="targetPoint" />
            <Array as="points">
              <mxPoint x="439" y="640" />
            </Array>
          </mxGeometry>
        </mxCell>
        <mxCell id="-oUlo9dYUjmmpKcrV3Kn-3" value="1" style="edgeLabel;resizable=0;html=1;align=left;verticalAlign=bottom;" parent="-oUlo9dYUjmmpKcrV3Kn-2" connectable="0" vertex="1">
          <mxGeometry x="-1" relative="1" as="geometry">
            <mxPoint x="20" y="19" as="offset" />
          </mxGeometry>
        </mxCell>
        <mxCell id="-oUlo9dYUjmmpKcrV3Kn-4" value="1" style="edgeLabel;resizable=0;html=1;align=right;verticalAlign=bottom;" parent="-oUlo9dYUjmmpKcrV3Kn-2" connectable="0" vertex="1">
          <mxGeometry x="1" relative="1" as="geometry">
            <mxPoint x="-11" as="offset" />
          </mxGeometry>
        </mxCell>
        <mxCell id="-oUlo9dYUjmmpKcrV3Kn-5" value="" style="endArrow=none;html=1;edgeStyle=orthogonalEdgeStyle;rounded=0;" parent="1" source="yc8N-USPrAwOxbpiKcuN-10" target="yc8N-USPrAwOxbpiKcuN-59" edge="1">
          <mxGeometry relative="1" as="geometry">
            <mxPoint x="260" y="641" as="sourcePoint" />
            <mxPoint x="580" y="641" as="targetPoint" />
            <Array as="points">
              <mxPoint x="165" y="120" />
              <mxPoint x="720" y="120" />
            </Array>
          </mxGeometry>
        </mxCell>
        <mxCell id="-oUlo9dYUjmmpKcrV3Kn-6" value="1" style="edgeLabel;resizable=0;html=1;align=left;verticalAlign=bottom;" parent="-oUlo9dYUjmmpKcrV3Kn-5" connectable="0" vertex="1">
          <mxGeometry x="-1" relative="1" as="geometry" />
        </mxCell>
        <mxCell id="-oUlo9dYUjmmpKcrV3Kn-7" value="1" style="edgeLabel;resizable=0;html=1;align=right;verticalAlign=bottom;" parent="-oUlo9dYUjmmpKcrV3Kn-5" connectable="0" vertex="1">
          <mxGeometry x="1" relative="1" as="geometry">
            <mxPoint x="-11" as="offset" />
          </mxGeometry>
        </mxCell>
        <mxCell id="-oUlo9dYUjmmpKcrV3Kn-11" value="" style="endArrow=none;html=1;edgeStyle=orthogonalEdgeStyle;rounded=0;" parent="1" source="yc8N-USPrAwOxbpiKcuN-30" target="yc8N-USPrAwOxbpiKcuN-44" edge="1">
          <mxGeometry relative="1" as="geometry">
            <mxPoint x="1190" y="641" as="sourcePoint" />
            <mxPoint x="880" y="641" as="targetPoint" />
            <Array as="points">
              <mxPoint x="720" y="840" />
            </Array>
          </mxGeometry>
        </mxCell>
        <mxCell id="-oUlo9dYUjmmpKcrV3Kn-12" value="1" style="edgeLabel;resizable=0;html=1;align=left;verticalAlign=bottom;" parent="-oUlo9dYUjmmpKcrV3Kn-11" connectable="0" vertex="1">
          <mxGeometry x="-1" relative="1" as="geometry">
            <mxPoint x="-20" as="offset" />
          </mxGeometry>
        </mxCell>
        <mxCell id="-oUlo9dYUjmmpKcrV3Kn-13" value="1" style="edgeLabel;resizable=0;html=1;align=right;verticalAlign=bottom;" parent="-oUlo9dYUjmmpKcrV3Kn-11" connectable="0" vertex="1">
          <mxGeometry x="1" relative="1" as="geometry">
            <mxPoint x="10" y="24" as="offset" />
          </mxGeometry>
        </mxCell>
        <mxCell id="-oUlo9dYUjmmpKcrV3Kn-17" value="1" style="endArrow=open;html=1;endSize=12;startArrow=diamondThin;startSize=14;startFill=1;edgeStyle=orthogonalEdgeStyle;align=left;verticalAlign=bottom;rounded=0;" parent="1" source="yc8N-USPrAwOxbpiKcuN-52" target="yc8N-USPrAwOxbpiKcuN-81" edge="1">
          <mxGeometry x="-0.7978" y="20" relative="1" as="geometry">
            <mxPoint x="325" y="1226.0000000000002" as="sourcePoint" />
            <mxPoint x="200.0000000000001" y="1470" as="targetPoint" />
            <Array as="points" />
            <mxPoint as="offset" />
          </mxGeometry>
        </mxCell>
        <mxCell id="-oUlo9dYUjmmpKcrV3Kn-19" value="0..*" style="text;html=1;align=center;verticalAlign=middle;resizable=0;points=[];autosize=1;strokeColor=none;fillColor=none;" parent="1" vertex="1">
          <mxGeometry x="220" y="1310" width="40" height="30" as="geometry" />
        </mxCell>
        <mxCell id="-oUlo9dYUjmmpKcrV3Kn-23" value="" style="endArrow=none;html=1;edgeStyle=orthogonalEdgeStyle;rounded=0;" parent="1" source="yc8N-USPrAwOxbpiKcuN-10" target="yc8N-USPrAwOxbpiKcuN-52" edge="1">
          <mxGeometry relative="1" as="geometry">
            <mxPoint x="260" y="641" as="sourcePoint" />
            <mxPoint x="580" y="641" as="targetPoint" />
            <Array as="points">
              <mxPoint x="310" y="250" />
            </Array>
          </mxGeometry>
        </mxCell>
        <mxCell id="-oUlo9dYUjmmpKcrV3Kn-24" value="1" style="edgeLabel;resizable=0;html=1;align=left;verticalAlign=bottom;" parent="-oUlo9dYUjmmpKcrV3Kn-23" connectable="0" vertex="1">
          <mxGeometry x="-1" relative="1" as="geometry">
            <mxPoint x="15" y="24" as="offset" />
          </mxGeometry>
        </mxCell>
        <mxCell id="-oUlo9dYUjmmpKcrV3Kn-25" value="1" style="edgeLabel;resizable=0;html=1;align=right;verticalAlign=bottom;" parent="-oUlo9dYUjmmpKcrV3Kn-23" connectable="0" vertex="1">
          <mxGeometry x="1" relative="1" as="geometry">
            <mxPoint x="15" as="offset" />
          </mxGeometry>
        </mxCell>
        <mxCell id="-oUlo9dYUjmmpKcrV3Kn-27" value="" style="endArrow=block;endFill=1;html=1;edgeStyle=orthogonalEdgeStyle;align=left;verticalAlign=top;rounded=0;" parent="1" source="yc8N-USPrAwOxbpiKcuN-59" target="yc8N-USPrAwOxbpiKcuN-72" edge="1">
          <mxGeometry x="-1" relative="1" as="geometry">
            <mxPoint x="710" y="370" as="sourcePoint" />
            <mxPoint x="870" y="370" as="targetPoint" />
            <Array as="points">
              <mxPoint x="990" y="210" />
              <mxPoint x="990" y="210" />
            </Array>
          </mxGeometry>
        </mxCell>
        <mxCell id="-oUlo9dYUjmmpKcrV3Kn-28" value="1" style="edgeLabel;resizable=0;html=1;align=left;verticalAlign=bottom;" parent="-oUlo9dYUjmmpKcrV3Kn-27" connectable="0" vertex="1">
          <mxGeometry x="-1" relative="1" as="geometry" />
        </mxCell>
        <mxCell id="-oUlo9dYUjmmpKcrV3Kn-29" value="0..*" style="text;html=1;align=center;verticalAlign=middle;resizable=0;points=[];autosize=1;strokeColor=none;fillColor=none;" parent="1" vertex="1">
          <mxGeometry x="1110" y="220" width="40" height="30" as="geometry" />
        </mxCell>
        <mxCell id="-oUlo9dYUjmmpKcrV3Kn-30" value="" style="endArrow=block;endFill=1;html=1;edgeStyle=orthogonalEdgeStyle;align=left;verticalAlign=top;rounded=0;" parent="1" source="yc8N-USPrAwOxbpiKcuN-59" target="yc8N-USPrAwOxbpiKcuN-37" edge="1">
          <mxGeometry x="-1" relative="1" as="geometry">
            <mxPoint x="855" y="260" as="sourcePoint" />
            <mxPoint x="1090" y="260" as="targetPoint" />
            <Array as="points">
              <mxPoint x="1070" y="250" />
              <mxPoint x="1070" y="1500" />
            </Array>
          </mxGeometry>
        </mxCell>
        <mxCell id="-oUlo9dYUjmmpKcrV3Kn-31" value="1" style="edgeLabel;resizable=0;html=1;align=left;verticalAlign=bottom;" parent="-oUlo9dYUjmmpKcrV3Kn-30" connectable="0" vertex="1">
          <mxGeometry x="-1" relative="1" as="geometry" />
        </mxCell>
        <mxCell id="-oUlo9dYUjmmpKcrV3Kn-32" value="0..*" style="text;html=1;align=center;verticalAlign=middle;resizable=0;points=[];autosize=1;strokeColor=none;fillColor=none;" parent="1" vertex="1">
          <mxGeometry x="1000" y="1470" width="40" height="30" as="geometry" />
        </mxCell>
        <mxCell id="-oUlo9dYUjmmpKcrV3Kn-33" value="" style="endArrow=none;html=1;edgeStyle=orthogonalEdgeStyle;rounded=0;" parent="1" source="yc8N-USPrAwOxbpiKcuN-44" target="yc8N-USPrAwOxbpiKcuN-59" edge="1">
          <mxGeometry relative="1" as="geometry">
            <mxPoint x="1190" y="641" as="sourcePoint" />
            <mxPoint x="880" y="641" as="targetPoint" />
          </mxGeometry>
        </mxCell>
        <mxCell id="-oUlo9dYUjmmpKcrV3Kn-34" value="1" style="edgeLabel;resizable=0;html=1;align=left;verticalAlign=bottom;" parent="-oUlo9dYUjmmpKcrV3Kn-33" connectable="0" vertex="1">
          <mxGeometry x="-1" relative="1" as="geometry">
            <mxPoint x="-20" as="offset" />
          </mxGeometry>
        </mxCell>
        <mxCell id="-oUlo9dYUjmmpKcrV3Kn-35" value="1" style="edgeLabel;resizable=0;html=1;align=right;verticalAlign=bottom;" parent="-oUlo9dYUjmmpKcrV3Kn-33" connectable="0" vertex="1">
          <mxGeometry x="1" relative="1" as="geometry">
            <mxPoint x="10" y="17" as="offset" />
          </mxGeometry>
        </mxCell>
        <mxCell id="-oUlo9dYUjmmpKcrV3Kn-36" value="" style="endArrow=block;endFill=1;html=1;edgeStyle=orthogonalEdgeStyle;align=left;verticalAlign=top;rounded=0;" parent="1" source="yc8N-USPrAwOxbpiKcuN-44" target="yc8N-USPrAwOxbpiKcuN-77" edge="1">
          <mxGeometry x="-1" relative="1" as="geometry">
            <mxPoint x="855" y="260" as="sourcePoint" />
            <mxPoint x="1150" y="260" as="targetPoint" />
            <Array as="points">
              <mxPoint x="1020" y="580" />
              <mxPoint x="1020" y="580" />
            </Array>
          </mxGeometry>
        </mxCell>
        <mxCell id="-oUlo9dYUjmmpKcrV3Kn-37" value="1" style="edgeLabel;resizable=0;html=1;align=left;verticalAlign=bottom;" parent="-oUlo9dYUjmmpKcrV3Kn-36" connectable="0" vertex="1">
          <mxGeometry x="-1" relative="1" as="geometry" />
        </mxCell>
        <mxCell id="-oUlo9dYUjmmpKcrV3Kn-38" value="0..*" style="text;html=1;align=center;verticalAlign=middle;resizable=0;points=[];autosize=1;strokeColor=none;fillColor=none;" parent="1" vertex="1">
          <mxGeometry x="1140" y="550" width="40" height="30" as="geometry" />
        </mxCell>
        <mxCell id="-oUlo9dYUjmmpKcrV3Kn-39" value="" style="endArrow=none;html=1;edgeStyle=orthogonalEdgeStyle;rounded=0;" parent="1" source="yc8N-USPrAwOxbpiKcuN-20" target="yc8N-USPrAwOxbpiKcuN-44" edge="1">
          <mxGeometry relative="1" as="geometry">
            <mxPoint x="280" y="641" as="sourcePoint" />
            <mxPoint x="580" y="641" as="targetPoint" />
            <Array as="points">
              <mxPoint x="645" y="770" />
              <mxPoint x="645" y="770" />
            </Array>
          </mxGeometry>
        </mxCell>
        <mxCell id="-oUlo9dYUjmmpKcrV3Kn-40" value="1" style="edgeLabel;resizable=0;html=1;align=left;verticalAlign=bottom;" parent="-oUlo9dYUjmmpKcrV3Kn-39" connectable="0" vertex="1">
          <mxGeometry x="-1" relative="1" as="geometry" />
        </mxCell>
        <mxCell id="-oUlo9dYUjmmpKcrV3Kn-41" value="1" style="edgeLabel;resizable=0;html=1;align=right;verticalAlign=bottom;" parent="-oUlo9dYUjmmpKcrV3Kn-39" connectable="0" vertex="1">
          <mxGeometry x="1" relative="1" as="geometry">
            <mxPoint x="-11" y="24" as="offset" />
          </mxGeometry>
        </mxCell>
        <mxCell id="-oUlo9dYUjmmpKcrV3Kn-42" value="1" style="endArrow=open;html=1;endSize=12;startArrow=diamondThin;startSize=14;startFill=1;edgeStyle=orthogonalEdgeStyle;align=left;verticalAlign=bottom;rounded=0;" parent="1" source="yc8N-USPrAwOxbpiKcuN-44" target="yc8N-USPrAwOxbpiKcuN-37" edge="1">
          <mxGeometry x="-1" y="3" relative="1" as="geometry">
            <mxPoint x="610" y="880" as="sourcePoint" />
            <mxPoint x="770" y="880" as="targetPoint" />
            <Array as="points">
              <mxPoint x="835" y="910" />
              <mxPoint x="835" y="910" />
            </Array>
          </mxGeometry>
        </mxCell>
        <mxCell id="-oUlo9dYUjmmpKcrV3Kn-43" value="0..*" style="text;html=1;align=center;verticalAlign=middle;resizable=0;points=[];autosize=1;strokeColor=none;fillColor=none;" parent="1" vertex="1">
          <mxGeometry x="830" y="1348" width="40" height="30" as="geometry" />
        </mxCell>
        <mxCell id="-oUlo9dYUjmmpKcrV3Kn-44" value="1" style="endArrow=open;html=1;endSize=12;startArrow=diamondThin;startSize=14;startFill=0;edgeStyle=orthogonalEdgeStyle;align=left;verticalAlign=bottom;rounded=0;" parent="1" source="yc8N-USPrAwOxbpiKcuN-20" target="yc8N-USPrAwOxbpiKcuN-81" edge="1">
          <mxGeometry x="-0.9102" y="10" relative="1" as="geometry">
            <mxPoint x="550" y="1350" as="sourcePoint" />
            <mxPoint x="710" y="1350" as="targetPoint" />
            <Array as="points">
              <mxPoint x="620" y="1500" />
            </Array>
            <mxPoint as="offset" />
          </mxGeometry>
        </mxCell>
        <mxCell id="-oUlo9dYUjmmpKcrV3Kn-45" value="0..*" style="text;html=1;align=center;verticalAlign=middle;resizable=0;points=[];autosize=1;strokeColor=none;fillColor=none;" parent="1" vertex="1">
          <mxGeometry x="360" y="1470" width="40" height="30" as="geometry" />
        </mxCell>
        <mxCell id="-oUlo9dYUjmmpKcrV3Kn-46" value="1" style="endArrow=open;html=1;endSize=12;startArrow=diamondThin;startSize=14;startFill=1;edgeStyle=orthogonalEdgeStyle;align=left;verticalAlign=bottom;rounded=0;" parent="1" source="yc8N-USPrAwOxbpiKcuN-20" target="yc8N-USPrAwOxbpiKcuN-30" edge="1">
          <mxGeometry x="-1" y="3" relative="1" as="geometry">
            <mxPoint x="660" y="1130" as="sourcePoint" />
            <mxPoint x="820" y="1130" as="targetPoint" />
            <Array as="points">
              <mxPoint x="1060" y="1106" />
              <mxPoint x="1060" y="1106" />
            </Array>
          </mxGeometry>
        </mxCell>
        <mxCell id="-oUlo9dYUjmmpKcrV3Kn-47" value="1" style="text;html=1;align=center;verticalAlign=middle;resizable=0;points=[];autosize=1;strokeColor=none;fillColor=none;" parent="1" vertex="1">
          <mxGeometry x="1105" y="1078" width="30" height="30" as="geometry" />
        </mxCell>
        <mxCell id="-oUlo9dYUjmmpKcrV3Kn-48" value="" style="endArrow=block;endFill=1;html=1;edgeStyle=orthogonalEdgeStyle;align=left;verticalAlign=top;rounded=0;" parent="1" source="yc8N-USPrAwOxbpiKcuN-59" target="yc8N-USPrAwOxbpiKcuN-77" edge="1">
          <mxGeometry x="-1" relative="1" as="geometry">
            <mxPoint x="855" y="260" as="sourcePoint" />
            <mxPoint x="1150" y="260" as="targetPoint" />
            <Array as="points">
              <mxPoint x="980" y="310" />
              <mxPoint x="980" y="631" />
            </Array>
          </mxGeometry>
        </mxCell>
        <mxCell id="-oUlo9dYUjmmpKcrV3Kn-49" value="1" style="edgeLabel;resizable=0;html=1;align=left;verticalAlign=bottom;" parent="-oUlo9dYUjmmpKcrV3Kn-48" connectable="0" vertex="1">
          <mxGeometry x="-1" relative="1" as="geometry" />
        </mxCell>
        <mxCell id="-oUlo9dYUjmmpKcrV3Kn-50" value="0..*" style="text;html=1;align=center;verticalAlign=middle;resizable=0;points=[];autosize=1;strokeColor=none;fillColor=none;" parent="1" vertex="1">
          <mxGeometry x="1140" y="610" width="40" height="30" as="geometry" />
        </mxCell>
        <mxCell id="pX2vOgB9DVnVpHi7qS7u-1" value="" style="endArrow=none;html=1;edgeStyle=orthogonalEdgeStyle;rounded=0;" parent="1" source="yc8N-USPrAwOxbpiKcuN-30" target="yc8N-USPrAwOxbpiKcuN-72" edge="1">
          <mxGeometry relative="1" as="geometry">
            <mxPoint x="1150" y="850" as="sourcePoint" />
            <mxPoint x="730" y="746" as="targetPoint" />
            <Array as="points">
              <mxPoint x="1510" y="850" />
              <mxPoint x="1510" y="250" />
            </Array>
          </mxGeometry>
        </mxCell>
        <mxCell id="pX2vOgB9DVnVpHi7qS7u-2" value="1" style="edgeLabel;resizable=0;html=1;align=left;verticalAlign=bottom;" parent="pX2vOgB9DVnVpHi7qS7u-1" connectable="0" vertex="1">
          <mxGeometry x="-1" relative="1" as="geometry">
            <mxPoint x="10" y="-10" as="offset" />
          </mxGeometry>
        </mxCell>
        <mxCell id="pX2vOgB9DVnVpHi7qS7u-3" value="1" style="edgeLabel;resizable=0;html=1;align=right;verticalAlign=bottom;" parent="pX2vOgB9DVnVpHi7qS7u-1" connectable="0" vertex="1">
          <mxGeometry x="1" relative="1" as="geometry">
            <mxPoint x="10" y="24" as="offset" />
          </mxGeometry>
        </mxCell>
        <mxCell id="pX2vOgB9DVnVpHi7qS7u-11" value="" style="endArrow=block;endFill=1;html=1;edgeStyle=orthogonalEdgeStyle;align=left;verticalAlign=top;rounded=0;" parent="1" source="yc8N-USPrAwOxbpiKcuN-44" target="yc8N-USPrAwOxbpiKcuN-72" edge="1">
          <mxGeometry x="-1" relative="1" as="geometry">
            <mxPoint x="880" y="590" as="sourcePoint" />
            <mxPoint x="1190" y="590" as="targetPoint" />
            <Array as="points">
              <mxPoint x="830" y="460" />
              <mxPoint x="1270" y="460" />
            </Array>
          </mxGeometry>
        </mxCell>
        <mxCell id="pX2vOgB9DVnVpHi7qS7u-12" value="1" style="edgeLabel;resizable=0;html=1;align=left;verticalAlign=bottom;" parent="pX2vOgB9DVnVpHi7qS7u-11" connectable="0" vertex="1">
          <mxGeometry x="-1" relative="1" as="geometry" />
        </mxCell>
        <mxCell id="pX2vOgB9DVnVpHi7qS7u-13" value="0..*" style="text;html=1;align=center;verticalAlign=middle;resizable=0;points=[];autosize=1;strokeColor=none;fillColor=none;" parent="1" vertex="1">
          <mxGeometry x="1235" y="390" width="40" height="30" as="geometry" />
        </mxCell>
        <mxCell id="10nFVhY4CRgbnprzsdyt-4" value="&lt;div&gt;&lt;span style=&quot;font-weight: normal;&quot;&gt;&amp;lt;&amp;lt;control&amp;gt;&amp;gt;&lt;/span&gt;&lt;/div&gt;MapController" style="swimlane;fontStyle=1;align=center;verticalAlign=top;childLayout=stackLayout;horizontal=1;startSize=40;horizontalStack=0;resizeParent=1;resizeParentMax=0;resizeLast=0;collapsible=1;marginBottom=0;whiteSpace=wrap;html=1;" vertex="1" parent="1">
          <mxGeometry x="350" y="210" width="190" height="380" as="geometry" />
        </mxCell>
        <mxCell id="10nFVhY4CRgbnprzsdyt-5" value="+ rotationAngle: float" style="text;strokeColor=none;fillColor=none;align=left;verticalAlign=top;spacingLeft=4;spacingRight=4;overflow=hidden;rotatable=0;points=[[0,0.5],[1,0.5]];portConstraint=eastwest;whiteSpace=wrap;html=1;" vertex="1" parent="10nFVhY4CRgbnprzsdyt-4">
          <mxGeometry y="40" width="190" height="26" as="geometry" />
        </mxCell>
        <mxCell id="10nFVhY4CRgbnprzsdyt-6" value="+ zoomLevel: float" style="text;strokeColor=none;fillColor=none;align=left;verticalAlign=top;spacingLeft=4;spacingRight=4;overflow=hidden;rotatable=0;points=[[0,0.5],[1,0.5]];portConstraint=eastwest;whiteSpace=wrap;html=1;" vertex="1" parent="10nFVhY4CRgbnprzsdyt-4">
          <mxGeometry y="66" width="190" height="26" as="geometry" />
        </mxCell>
        <mxCell id="10nFVhY4CRgbnprzsdyt-7" value="" style="line;strokeWidth=1;fillColor=none;align=left;verticalAlign=middle;spacingTop=-1;spacingLeft=3;spacingRight=3;rotatable=0;labelPosition=right;points=[];portConstraint=eastwest;strokeColor=inherit;" vertex="1" parent="10nFVhY4CRgbnprzsdyt-4">
          <mxGeometry y="92" width="190" height="8" as="geometry" />
        </mxCell>
        <mxCell id="10nFVhY4CRgbnprzsdyt-8" value="+ loadMap(mapData: Map): void" style="text;strokeColor=none;fillColor=none;align=left;verticalAlign=top;spacingLeft=4;spacingRight=4;overflow=hidden;rotatable=0;points=[[0,0.5],[1,0.5]];portConstraint=eastwest;whiteSpace=wrap;html=1;" vertex="1" parent="10nFVhY4CRgbnprzsdyt-4">
          <mxGeometry y="100" width="190" height="20" as="geometry" />
        </mxCell>
        <mxCell id="10nFVhY4CRgbnprzsdyt-9" value="+ zoomIn(): void" style="text;strokeColor=none;fillColor=none;align=left;verticalAlign=top;spacingLeft=4;spacingRight=4;overflow=hidden;rotatable=0;points=[[0,0.5],[1,0.5]];portConstraint=eastwest;whiteSpace=wrap;html=1;" vertex="1" parent="10nFVhY4CRgbnprzsdyt-4">
          <mxGeometry y="120" width="190" height="22" as="geometry" />
        </mxCell>
        <mxCell id="10nFVhY4CRgbnprzsdyt-10" value="+ zoomOut(): void" style="text;strokeColor=none;fillColor=none;align=left;verticalAlign=top;spacingLeft=4;spacingRight=4;overflow=hidden;rotatable=0;points=[[0,0.5],[1,0.5]];portConstraint=eastwest;whiteSpace=wrap;html=1;" vertex="1" parent="10nFVhY4CRgbnprzsdyt-4">
          <mxGeometry y="142" width="190" height="26" as="geometry" />
        </mxCell>
        <mxCell id="10nFVhY4CRgbnprzsdyt-11" value="+ rotate(rotationAngle: float): void" style="text;strokeColor=none;fillColor=none;align=left;verticalAlign=top;spacingLeft=4;spacingRight=4;overflow=hidden;rotatable=0;points=[[0,0.5],[1,0.5]];portConstraint=eastwest;whiteSpace=wrap;html=1;" vertex="1" parent="10nFVhY4CRgbnprzsdyt-4">
          <mxGeometry y="168" width="190" height="32" as="geometry" />
        </mxCell>
        <mxCell id="10nFVhY4CRgbnprzsdyt-12" value="+&amp;nbsp;&lt;span style=&quot;color: rgba(0, 0, 0, 0); font-family: monospace; font-size: 0px; text-wrap-mode: nowrap;&quot;&gt;%3CmxGraphModel%3E%3Croot%3E%3CmxCell%20id%3D%220%22%2F%3E%3CmxCell%20id%3D%221%22%20parent%3D%220%22%2F%3E%3CmxCell%20id%3D%222%22%20value%3D%22%2B%26amp%3Bnbsp%3BcalculateRoute(start%3A%20Coordinates%2C%20end%3A%20Destination)%3A%20Route%22%20style%3D%22text%3BstrokeColor%3Dnone%3BfillColor%3Dnone%3Balign%3Dleft%3BverticalAlign%3Dtop%3BspacingLeft%3D4%3BspacingRight%3D4%3Boverflow%3Dhidden%3Brotatable%3D0%3Bpoints%3D%5B%5B0%2C0.5%5D%2C%5B1%2C0.5%5D%5D%3BportConstraint%3Deastwest%3BwhiteSpace%3Dwrap%3Bhtml%3D1%3B%22%20vertex%3D%221%22%20parent%3D%221%22%3E%3CmxGeometry%20x%3D%2250%22%20y%3D%22556%22%20width%3D%22300%22%20height%3D%2240%22%20as%3D%22geometry%22%2F%3E%3C%2FmxCell%3E%3C%2Froot%3E%3C%2FmxGraphModel%3E&lt;/span&gt;&lt;span style=&quot;color: rgba(0, 0, 0, 0); font-family: monospace; font-size: 0px; text-wrap-mode: nowrap;&quot;&gt;%3CmxGraphModel%3E%3Croot%3E%3CmxCell%20id%3D%220%22%2F%3E%3CmxCell%20id%3D%221%22%20parent%3D%220%22%2F%3E%3CmxCell%20id%3D%222%22%20value%3D%22%2B%26amp%3Bnbsp%3BcalculateRoute(start%3A%20Coordinates%2C%20end%3A%20Destination)%3A%20Route%22%20style%3D%22text%3BstrokeColor%3Dnone%3BfillColor%3Dnone%3Balign%3Dleft%3BverticalAlign%3Dtop%3BspacingLeft%3D4%3BspacingRight%3D4%3Boverflow%3Dhidden%3Brotatable%3D0%3Bpoints%3D%5B%5B0%2C0.5%5D%2C%5B1%2C0.5%5D%5D%3BportConstraint%3Deastwest%3BwhiteSpace%3Dwrap%3Bhtml%3D1%3B%22%20vertex%3D%221%22%20parent%3D%221%22%3E%3CmxGeometry%20x%3D%2250%22%20y%3D%22556%22%20width%3D%22300%22%20height%3D%2240%22%20as%3D%22geometry%22%2F%3E%3C%2FmxCell%3E%3C%2Froot%3E%3C%2FmxGraphModel%3E&lt;/span&gt;&lt;span style=&quot;color: rgba(0, 0, 0, 0); font-family: monospace; font-size: 0px; text-wrap-mode: nowrap;&quot;&gt;%3CmxGraphModel%3E%3Croot%3E%3CmxCell%20id%3D%220%22%2F%3E%3CmxCell%20id%3D%221%22%20parent%3D%220%22%2F%3E%3CmxCell%20id%3D%222%22%20value%3D%22%2B%26amp%3Bnbsp%3BcalculateRoute(start%3A%20Coordinates%2C%20end%3A%20Destination)%3A%20Route%22%20style%3D%22text%3BstrokeColor%3Dnone%3BfillColor%3Dnone%3Balign%3Dleft%3BverticalAlign%3Dtop%3BspacingLeft%3D4%3BspacingRight%3D4%3Boverflow%3Dhidden%3Brotatable%3D0%3Bpoints%3D%5B%5B0%2C0.5%5D%2C%5B1%2C0.5%5D%5D%3BportConstraint%3Deastwest%3BwhiteSpace%3Dwrap%3Bhtml%3D1%3B%22%20vertex%3D%221%22%20parent%3D%221%22%3E%3CmxGeometry%20x%3D%2250%22%20y%3D%22556%22%20width%3D%22300%22%20height%3D%2240%22%20as%3D%22geometry%22%2F%3E%3C%2FmxCell%3E%3C%2Froot%3E%3C%2FmxGraphModel%3E&lt;/span&gt;&amp;nbsp;displayRoute(start: Coordinates, end: Destination): void" style="text;strokeColor=none;fillColor=none;align=left;verticalAlign=top;spacingLeft=4;spacingRight=4;overflow=hidden;rotatable=0;points=[[0,0.5],[1,0.5]];portConstraint=eastwest;whiteSpace=wrap;html=1;" vertex="1" parent="10nFVhY4CRgbnprzsdyt-4">
          <mxGeometry y="200" width="190" height="60" as="geometry" />
        </mxCell>
        <mxCell id="10nFVhY4CRgbnprzsdyt-13" value="+&amp;nbsp;displayMap(): void" style="text;strokeColor=none;fillColor=none;align=left;verticalAlign=top;spacingLeft=4;spacingRight=4;overflow=hidden;rotatable=0;points=[[0,0.5],[1,0.5]];portConstraint=eastwest;whiteSpace=wrap;html=1;" vertex="1" parent="10nFVhY4CRgbnprzsdyt-4">
          <mxGeometry y="260" width="190" height="30" as="geometry" />
        </mxCell>
        <mxCell id="10nFVhY4CRgbnprzsdyt-14" value="+ displayEstimatedTime(): void" style="text;strokeColor=none;fillColor=none;align=left;verticalAlign=top;spacingLeft=4;spacingRight=4;overflow=hidden;rotatable=0;points=[[0,0.5],[1,0.5]];portConstraint=eastwest;whiteSpace=wrap;html=1;" vertex="1" parent="10nFVhY4CRgbnprzsdyt-4">
          <mxGeometry y="290" width="190" height="30" as="geometry" />
        </mxCell>
        <mxCell id="10nFVhY4CRgbnprzsdyt-15" value="+ removeRoute(): void" style="text;strokeColor=none;fillColor=none;align=left;verticalAlign=top;spacingLeft=4;spacingRight=4;overflow=hidden;rotatable=0;points=[[0,0.5],[1,0.5]];portConstraint=eastwest;whiteSpace=wrap;html=1;" vertex="1" parent="10nFVhY4CRgbnprzsdyt-4">
          <mxGeometry y="320" width="190" height="30" as="geometry" />
        </mxCell>
        <mxCell id="10nFVhY4CRgbnprzsdyt-16" value="+ troubleshootingSteps(): void" style="text;strokeColor=none;fillColor=none;align=left;verticalAlign=top;spacingLeft=4;spacingRight=4;overflow=hidden;rotatable=0;points=[[0,0.5],[1,0.5]];portConstraint=eastwest;whiteSpace=wrap;html=1;" vertex="1" parent="10nFVhY4CRgbnprzsdyt-4">
          <mxGeometry y="350" width="190" height="30" as="geometry" />
        </mxCell>
        <mxCell id="10nFVhY4CRgbnprzsdyt-30" value="" style="endArrow=none;html=1;edgeStyle=orthogonalEdgeStyle;rounded=0;" edge="1" parent="1" source="10nFVhY4CRgbnprzsdyt-4" target="giSu3xgfnJtw4W87moCO-1">
          <mxGeometry relative="1" as="geometry">
            <mxPoint x="120" y="310" as="sourcePoint" />
            <mxPoint x="251" y="359" as="targetPoint" />
            <Array as="points">
              <mxPoint x="165" y="359" />
            </Array>
          </mxGeometry>
        </mxCell>
        <mxCell id="10nFVhY4CRgbnprzsdyt-31" value="1" style="edgeLabel;resizable=0;html=1;align=left;verticalAlign=bottom;" connectable="0" vertex="1" parent="10nFVhY4CRgbnprzsdyt-30">
          <mxGeometry x="-1" relative="1" as="geometry">
            <mxPoint x="-20" y="19" as="offset" />
          </mxGeometry>
        </mxCell>
        <mxCell id="10nFVhY4CRgbnprzsdyt-32" value="1" style="edgeLabel;resizable=0;html=1;align=right;verticalAlign=bottom;" connectable="0" vertex="1" parent="10nFVhY4CRgbnprzsdyt-30">
          <mxGeometry x="1" relative="1" as="geometry">
            <mxPoint x="-11" as="offset" />
          </mxGeometry>
        </mxCell>
      </root>
    </mxGraphModel>
  </diagram>
</mxfile>
